<?xml version="1.0" encoding="utf-8"?>
<!-- Generator: Adobe Illustrator 16.0.0, SVG Export Plug-In . SVG Version: 6.00 Build 0)  -->
<!DOCTYPE svg PUBLIC "-//W3C//DTD SVG 1.1//EN" "http://www.w3.org/Graphics/SVG/1.1/DTD/svg11.dtd">
<svg version="1.1" id="Capa_1" xmlns="http://www.w3.org/2000/svg" xmlns:xlink="http://www.w3.org/1999/xlink" x="0px" y="0px"
	 width="248.809px" height="291.102px" viewBox="0 0 248.809 291.102" enable-background="new 0 0 248.809 291.102"
	 xml:space="preserve">
<g>
	<path fill="#FFFFFF" d="M249.117,57.34V15.5c-4.271,0-8.119-1.779-10.852-4.64c-2.857-2.729-4.648-6.592-4.648-10.86h-31.4
		c0,8.29-6.709,15-15,15h-0.939c-8.277,0-15-6.71-15-15h-31.398c0,8.29-6.719,15-15,15h-0.949c-8.281,0-15-6.71-15-15H77.53
		c0,8.29-6.711,15-15,15h-0.938c-8.29,0-15-6.71-15-15h-31.4c0,4.271-1.79,8.131-4.647,10.86c-2.73,2.858-6.58,4.64-10.853,4.64
		v41.841c8.28,0,15,6.72,15,15v1.109c0,8.279-6.72,15-15,15v41.83c8.28,0,15,6.72,15,15v1.108c0,8.279-6.72,15-15,15v41.83
		c8.28,0,15,6.722,15,15v1.109c0,8.28-6.72,15-15,15v41.84c4.271,0,8.12,1.78,10.853,4.641c2.857,2.729,4.647,6.592,4.647,10.859
		h31.4c0-8.289,6.71-15,15-15h0.938c8.289,0,15,6.711,15,15h31.399c0-8.289,6.719-15,15-15h0.949c8.281,0,15,6.711,15,15h31.398
		c0-8.289,6.711-15,15-15h0.939c8.291,0,15,6.711,15,15h31.4c0-4.27,1.791-8.13,4.648-10.859c2.73-2.858,6.58-4.641,10.852-4.641
		v-41.84c-8.279,0-15-6.72-15-15v-1.109c0-8.278,6.721-15,15-15v-41.83c-8.279,0-15-6.721-15-15v-1.108c0-8.28,6.721-15,15-15V88.45
		c-8.279,0-15-6.72-15-15v-1.109C234.117,64.059,240.836,57.34,249.117,57.34z M214.287,256.99H34.516V34.68h179.771V256.99z"/>
</g>
<rect x="34.549" y="68.335" fill="none" width="179.711" height="155.198"/>
<text transform="matrix(1 0 0 1 96.7209 223.2747)" fill="#FFFFFF" font-family="'Oswald-Regular'" font-size="177.1729">1</text>
</svg>
