<?xml version="1.0" encoding="utf-8"?>
<!-- Generator: Adobe Illustrator 16.0.0, SVG Export Plug-In . SVG Version: 6.00 Build 0)  -->
<!DOCTYPE svg PUBLIC "-//W3C//DTD SVG 1.1//EN" "http://www.w3.org/Graphics/SVG/1.1/DTD/svg11.dtd">
<svg version="1.1" id="Capa_1" xmlns="http://www.w3.org/2000/svg" xmlns:xlink="http://www.w3.org/1999/xlink" x="0px" y="0px"
	 width="290.039px" height="287.096px" viewBox="0 0 290.039 287.096" enable-background="new 0 0 290.039 287.096"
	 xml:space="preserve">
<text transform="matrix(1 0 0 1 69.8594 167.7454)" font-family="'Oswald-Regular'" font-size="58.7848">23429</text>
<g>
	<g>
		<g>
			<path d="M259.627,69.062c0.479,0.658,0.846,1.396,1.239,2.106c0.554,0.995,1.079,2.007,1.628,3.006
				c0.865,1.584,1.216,3.604,2.613,4.744c0.746,0.605,2.277,2.271,2.877,1.498c0.679-0.869-1.764-3.364-2.057-4.448
				c-0.009-0.027-0.009-0.055-0.015-0.079c-1.229-2.239-1.321-4.414-2.659-6.587c-1.41-2.291-2.465-4.943-4.505-6.703
				c-0.942-0.813-1.849-1.741-3.021-2.043c-0.031-0.008-0.067,0.022-0.095,0.03c-0.282,0.063-0.851-0.168-1.171,0.024
				c-0.248,0.15-0.357,0.504-0.332,0.775c0.141,1.366,1.502,2.334,2.313,3.452C257.479,66.271,258.596,67.635,259.627,69.062z"/>
			<path d="M284.509,137.846c-0.084-2.643-0.383-5.279-0.698-7.904c-0.287-2.376-0.549-4.761-0.873-7.132
				c-0.084-0.253-0.164-0.509-0.258-0.76c-1.854-5.059-3.613-10.638-4.47-16.188c-0.08-0.132-0.147-0.277-0.188-0.459
				c-0.571-2.513-1.283-5-1.479-7.569c-0.728-1.842-1.262-3.774-1.729-5.659c-0.312-0.783-0.619-1.568-0.948-2.347
				c-0.845-1.989-1.263-4.288-3.025-5.836c-0.104-0.091-0.147-0.267-0.184-0.411c-0.065-0.33-0.091-0.686-0.144-1.021
				c-0.246-0.117-0.494-0.225-0.748-0.325c-0.136-0.054-0.238-0.172-0.375-0.199c-0.438-0.092-0.988-0.144-1.317,0.146
				c-0.013,0.01-0.003,0.025-0.007,0.042c-0.063,0.299-0.075,0.615-0.063,0.938c0.021,0.109,0.049,0.223,0.063,0.331
				c0.027,0.158,0.024,0.313,0.012,0.469c0.055,0.337,0.13,0.677,0.225,1.017c0.922,2.031,1.78,4.088,2.682,6.13
				c0.266,0.606,0.646,1.169,0.875,1.788c0.729,1.976,1.442,3.955,2.113,5.952c0.909,2.713,1.729,5.458,2.668,8.16
				c1.152,3.31,1.594,6.775,2.37,10.17c0.3,1.295,0.33,2.646,0.544,3.968c0.04,0.264,0.354,0.479,0.348,0.472
				c0.158,0.993,0.274,1.778,0.414,2.563c0.119,0.688,0.342,1.368,0.377,2.059c0.121,2.262,0.106,4.527,0.274,6.781
				c0.132,1.758,0.503,3.496,0.666,5.252c0.063,0.729-0.204,1.486-0.188,2.229c0.021,1.427,0.24,2.853,0.195,4.271
				c-0.053,1.707-0.396,3.405-0.429,5.112c-0.037,2.075,0.166,4.155,0.168,6.234c0.001,0.736-0.332,1.471-0.427,2.216
				c-0.128,1.017-0.171,2.042-0.247,3.063c-0.013,0.119,0.043,0.271-0.017,0.355c-0.684,1.049-0.41,2.219-0.521,3.354
				c-0.146,1.5-0.685,2.957-0.996,4.444c-0.612,2.925-1.142,5.867-1.804,8.782c-0.278,1.23-0.821,2.402-1.213,3.613
				c-0.25,0.773-0.361,1.602-0.67,2.347c-0.705,1.711-1,3.524-1.506,5.286c-0.021,0.074,0.004,0.18-0.037,0.231
				c-1.836,2.499-2.188,5.642-3.617,8.326c-1.166,2.188-1.973,4.571-3.11,6.779c-1.159,2.245-2.541,4.38-3.799,6.577
				c-0.228,0.396-0.257,0.899-0.488,1.288c-0.512,0.858-1.095,1.677-1.647,2.511c-0.947,1.43-1.901,2.854-2.842,4.293
				c-0.166,0.256-0.215,0.592-0.396,0.828c-0.169,0.226,0.01,0.898-0.672,0.582c-0.063-0.027-0.407,0.306-0.384,0.361
				c0.445,1.021-0.455,1.295-0.924,1.861c-0.629,0.76-1.211,1.521-1.662,2.483c-0.707,1.511-2.117,2.688-3.226,4.011
				c-0.303,0.357-0.567,0.754-0.88,1.104c-0.703,0.803-1.423,1.588-2.141,2.379c-0.77,0.854-1.529,1.703-2.311,2.543
				c-1.318,1.43-2.654,2.838-3.974,4.269c-0.851,0.919-1.601,1.939-2.526,2.771c-1.597,1.422-3.324,2.695-4.941,4.096
				c-1.02,0.881-1.936,1.873-2.896,2.814c-0.065,0.065-0.129,0.171-0.207,0.188c-1.635,0.318-2.608,1.523-3.627,2.684
				c-0.094,0.104-0.188,0.245-0.312,0.293c-1.752,0.689-3.104,1.921-4.471,3.166c-0.387,0.354-1.037,0.403-1.478,0.718
				c-1.247,0.895-2.425,1.883-3.685,2.753c-0.313,0.219-0.854,0.086-1.263,0.203c-0.284,0.084-0.688,0.271-0.766,0.494
				c-0.451,1.398-1.656,1.303-2.746,1.656c-1.058,0.343-1.991,1.121-2.896,1.813c-1.438,1.096-2.902,2.073-4.679,2.566
				c-0.721,0.199-1.377,0.641-2.062,0.979c-1.416,0.705-2.797,1.497-4.258,2.103c-1.453,0.599-2.99,0.994-4.479,1.509
				c-0.816,0.283-1.799,0.438-2.38,0.992c-0.813,0.771-1.743,0.894-2.702,1.141c-1.375,0.355-2.729,0.791-4.104,1.154
				c-1.475,0.39-2.973,0.693-4.438,1.109c-1.646,0.471-3.261,1.047-4.899,1.527c-1.063,0.314-2.146,0.582-3.231,0.813
				c-1.461,0.309-2.927,0.605-4.402,0.816c-1.03,0.146-2.086,0.145-3.131,0.199c-0.16,0.008-0.373-0.073-0.471,0.004
				c-1.729,1.349-3.812,0.444-5.693,0.887c-1.282,0.303-2.688,0.047-4.024,0.158c-1.563,0.139-3.104,0.477-4.67,0.598
				c-1.355,0.104-2.729,0.043-4.097,0.03c-0.756-0.005-1.514-0.042-2.268-0.084c-2.297-0.128-4.593-0.288-6.891-0.386
				c-1.103-0.047-2.213,0.084-3.314,0.025c-1.208-0.064-2.41-0.251-3.613-0.396c-0.193-0.021-0.389-0.147-0.57-0.128
				c-2.347,0.303-4.502-0.665-6.752-0.991c-1.401-0.202-2.84-0.189-4.22-0.479c-0.884-0.187-1.614-0.592-2.651-0.334
				c-0.691,0.174-1.587-0.59-2.42-0.836c-1.744-0.521-3.529-0.904-5.257-1.475c-1.31-0.432-2.827,0.013-3.981-1.274
				c-0.531-0.593-1.739-0.555-2.62-0.862c-1.417-0.494-2.811-1.057-4.226-1.557c-1.094-0.389-2.223-0.674-3.304-1.091
				c-1.366-0.527-2.7-1.146-4.048-1.722c-0.527-0.226-1.063-0.435-1.584-0.676c-1.098-0.508-2.203-1.002-3.278-1.557
				c-1.425-0.733-2.825-1.518-4.231-2.283c-1.486-0.813-2.887-1.982-4.473-2.352c-1.298-0.303-1.813-1.293-2.763-1.849
				c-2.289-1.335-4.473-2.85-6.713-4.27c-1.448-0.917-2.968-1.729-4.365-2.718c-0.818-0.576-1.423-1.446-2.185-2.116
				c-3.051-2.687-5.963-5.563-9.259-7.904c-1.583-1.124-2.274-2.809-3.708-3.956c-1.426-1.143-2.619-2.596-3.818-3.995
				c-2.998-3.501-6.03-6.979-8.875-10.603c-1.719-2.189-3.135-4.62-4.649-6.969c-1.752-2.716-3.55-5.402-5.161-8.198
				c-1.185-2.058-2.104-4.263-3.141-6.398c-2.727-5.632-5.1-11.416-6.943-17.39c-1.309-4.244-2.404-8.563-3.386-12.896
				c-0.872-3.85-1.52-7.755-2.146-11.65c-0.313-1.944-0.434-3.934-0.504-5.9c-0.202-5.646-0.432-11.295-0.452-16.944
				c-0.009-2.711,0.465-5.422,0.653-8.137c0.087-1.262,0.014-2.535,0.014-3.803c0.041,0.024,0.082,0.053,0.123,0.08
				c0.201-0.784,0.445-1.563,0.596-2.354c0.711-3.727,1.209-7.508,2.137-11.179c1.281-5.067,2.708-10.112,4.397-15.057
				c1.409-4.124,3.175-8.145,4.991-12.109c1.708-3.731,3.416-7.512,5.615-10.958c3.424-5.363,7.13-10.563,10.973-15.639
				c2.582-3.41,5.615-6.48,8.431-9.723c1.054-1.211,1.978-2.548,3.11-3.678c1.17-1.166,2.523-2.148,3.796-3.214
				c0.968-0.812,1.929-1.626,2.903-2.425c2.285-1.873,4.521-3.813,6.874-5.595c7.604-5.763,15.797-10.567,24.429-14.601
				c6.805-3.178,13.832-5.841,21.111-7.707c5.16-1.323,10.395-2.392,15.635-3.354c3.052-0.563,6.177-0.771,9.279-0.986
				c3.602-0.253,7.214-0.435,10.823-0.477c3.511-0.04,7.041-0.085,10.522,0.268c5.109,0.514,10.201,1.299,15.273,2.118
				c3.082,0.497,6.137,1.201,9.171,1.939c5.646,1.379,11.116,3.311,16.503,5.479c2.383,0.961,4.782,1.874,7.133,2.911
				c1.303,0.574,2.471,1.451,3.771,2.029c3.063,1.365,5.817,3.283,8.793,4.814c1.75,0.899,3.354,2.101,4.966,3.25
				c2.842,2.028,5.659,4.09,8.439,6.201c1.689,1.283,3.306,2.674,4.933,4.041c1.56,1.307,3.115,2.612,4.624,3.973
				c1.338,0.479,2.604,1.027,3.316,1.896c2.065,2.501,4.908,4.005,7.055,6.316c0.273,0.3,2.236,4.444,2.875,4.089
				c0.465-0.261-1.751-3.758-1.402-4.146c-0.039-0.046-0.08-0.092-0.119-0.137c-0.533-0.615-1.188-1.127-1.726-1.744
				c-0.771-0.896-1.313-2.09-2.256-2.69c-0.953-0.608-1.384-1.485-2.062-2.244c-1.351-1.514-2.769-2.987-4.306-4.311
				c-3.026-2.603-6.131-5.113-9.25-7.604c-2.218-1.771-4.481-3.481-6.784-5.146c-1.539-1.11-3.173-2.093-4.775-3.109
				c-1.112-0.707-2.243-1.385-3.377-2.06c-1.078-0.646-2.172-1.269-3.26-1.896c-1.017-0.589-1.996-1.258-3.06-1.744
				c-1.804-0.826-3.679-1.496-5.485-2.313c-2.647-1.193-5.25-2.5-7.91-3.665c-0.84-0.368-1.854-0.327-2.709-0.667
				c-1.653-0.658-3.258-1.456-4.886-2.19c-0.104-0.048-0.265-0.113-0.334-0.068c-0.803,0.508-1.383,0.136-2.043-0.36
				c-0.521-0.396-1.187-0.647-1.823-0.84c-1.257-0.373-2.522-0.824-3.813-0.929c-1.312-0.104-2.433-1.285-3.841-0.616
				c-0.909-0.865-2.064-0.901-3.229-1.045c-1.369-0.169-2.718-0.533-4.076-0.782c-0.771-0.143-1.552-0.253-2.33-0.325
				c-1.653-0.15-3.313-0.259-4.969-0.418c-0.306-0.027-0.601-0.208-0.892-0.338c-0.197-0.088-0.38-0.301-0.572-0.306
				c-1.104-0.028-2.209,0.041-3.312-0.021c-1.573-0.086-3.146-0.24-4.719-0.394c-0.943-0.093-1.883-0.313-2.826-0.332
				c-0.979-0.021-1.965,0.146-2.945,0.2c-1.474,0.076-2.948,0.14-4.423,0.187c-1.122,0.036-2.246,0.047-3.369,0.057
				c-1.206,0.012-2.414-0.021-3.619,0.016c-0.521,0.015-1.038,0.173-1.561,0.212c-1.383,0.103-2.774,0.11-4.147,0.278
				c-1.151,0.143-2.272,0.531-3.425,0.672c-1.348,0.156-2.74,0.018-4.066,0.262c-3.041,0.561-6.066,1.227-9.074,1.943
				c-2.919,0.694-5.871,1.248-8.648,2.514c-1.548,0.705-3.303,0.944-4.945,1.455c-1.193,0.371-2.367,0.811-3.529,1.271
				c-0.941,0.375-1.834,0.873-2.781,1.229c-0.392,0.146-0.938-0.078-1.297,0.101c-1.9,0.941-3.613,2.311-5.852,2.45
				c-0.141,0.009-0.277,0.13-0.408,0.212c-0.827,0.518-1.624,1.087-2.484,1.538c-1.055,0.553-2.205,0.927-3.233,1.521
				c-1.448,0.834-2.719,2.104-4.256,2.612c-1.517,0.503-2.643,1.318-3.753,2.339c-0.316,0.289-0.836,0.359-1.547,0.646
				c-0.26,0.184-0.762,0.594-1.316,0.913c-0.462,0.266-1.116,0.298-1.457,0.652c-1.188,1.235-2.57,2.152-4.051,3.004
				c-0.814,0.468-1.357,1.384-2.125,1.957c-1.752,1.31-3.633,2.447-5.34,3.813c-1.777,1.419-3.492,2.938-5.089,4.559
				c-1.899,1.927-4.266,3.387-5.733,5.738c-0.248,0.398-0.504,0.883-0.885,1.093c-2.689,1.476-4.063,4.191-6.07,6.31
				c-0.77,0.811-1.492,1.667-2.219,2.517c-0.701,0.82-1.389,1.653-2.067,2.492c-0.431,0.532-0.833,1.089-1.251,1.632
				c-0.188,0.245-0.422,0.465-0.57,0.732c-0.677,1.217-1.327,2.45-1.999,3.672c-0.085,0.153-0.253,0.262-0.361,0.405
				c-0.681,0.912-1.424,1.787-2.014,2.755c-0.614,1.009-1.022,2.142-1.624,3.158c-0.724,1.229-1.619,2.354-2.328,3.59
				c-1.646,2.865-3.369,5.69-4.674,8.751c-0.743,1.743-1.717,3.391-2.445,5.141c-0.949,2.282-1.742,4.628-2.633,6.938
				c-0.454,1.177-1.307,2.302-1.396,3.489c-0.154,2.067-0.872,3.831-1.89,5.559c-0.121,0.204-0.008,0.539-0.056,0.804
				c-0.224,1.229-0.23,2.579-0.782,3.644c-0.389,0.752-0.76,1.322-0.608,2.195c0.062,0.354-0.194,0.763-0.313,1.146
				c-0.244,0.782-0.555,1.559-0.724,2.357c-0.146,0.69-0.103,1.418-0.194,2.123c-0.173,1.328-0.406,2.648-0.57,3.979
				c-0.183,1.479-0.24,2.979-0.492,4.441c-0.197,1.151-0.748,2.248-0.889,3.399c-0.209,1.714-0.217,3.455-0.27,5.185
				c-0.037,1.205,0.045,2.415-0.029,3.616c-0.04,0.652-0.426,1.289-0.428,1.937c-0.002,1.548,0.119,3.097,0.217,4.642
				c0.031,0.506,0.343,1.083,0.185,1.496c-1.041,2.712,0.353,5.424-0.099,8.168c-0.268,1.627,0.21,3.382,0.406,5.072
				c0.038,0.331,0.322,0.633,0.557,1.063c-0.045,0.099-0.326,0.404-0.29,0.67c0.273,1.979,0.618,3.941,0.923,5.912
				c0.109,0.713-0.086,1.812,0.301,2.068c0.741,0.498,0.4,0.979,0.413,1.502c0.005,0.197-0.009,0.403,0.037,0.594
				c0.218,0.911,0.481,1.813,0.674,2.729c0.347,1.646,0.591,3.313,0.999,4.94c0.342,1.363,0.875,2.679,1.285,4.027
				c0.089,0.295-0.066,0.666,0.029,0.955c0.682,2.06,1.396,4.104,2.107,6.157c0.281,0.812,0.564,1.618,0.879,2.419
				c0.682,1.731,1.348,3.479,2.088,5.188c0.676,1.557,1.476,3.061,2.159,4.611c0.889,2.018,1.595,4.125,2.604,6.078
				c1.189,2.305,2.626,4.479,3.94,6.723c1.13,1.926,2.16,3.915,3.377,5.783c1.396,2.142,2.906,4.215,4.453,6.253
				c1.176,1.551,2.616,2.911,3.717,4.509c2.916,4.237,6.486,7.88,10.104,11.488c0.558,0.557,1.206,1.021,1.783,1.561
				c2.601,2.423,5.144,4.912,7.805,7.271c1.567,1.388,3.286,2.611,4.994,3.834c3.028,2.156,6.015,4.395,9.175,6.344
				c3.859,2.378,7.814,4.623,11.853,6.684c3.806,1.943,7.739,3.651,11.682,5.312c2.403,1.011,4.901,1.825,7.407,2.555
				c5.021,1.464,10.032,3.011,15.133,4.144c4.542,1.008,9.186,1.604,13.81,2.183c3.409,0.425,6.857,0.654,10.294,0.725
				c3.82,0.077,7.648-0.085,11.472-0.219c2.211-0.077,4.424-0.241,6.623-0.478c3.164-0.344,6.32-0.744,9.476-1.189
				c6.173-0.871,12.195-2.399,18.146-4.225c9.123-2.802,17.848-6.559,26.216-11.146c5.678-3.112,11.104-6.622,16.278-10.501
				c5.002-3.748,9.763-7.793,14.181-12.227c1.255-1.261,2.56-2.474,3.758-3.779c1.653-1.807,3.31-3.623,4.821-5.546
				c3.095-3.936,6.188-7.872,9.111-11.938c3.838-5.331,7.062-11.054,9.823-17.005c2.156-4.643,4.199-9.352,6-14.143
				c2.634-6.996,4.617-14.193,5.804-21.59c0.565-3.563,1.198-7.118,1.637-10.697c0.373-3.071,0.619-6.168,0.718-9.261
				C284.631,145.38,284.627,141.607,284.509,137.846z"/>
		</g>
	</g>
	<g>
		<g>
			<g>
				<path d="M32.432,123.082l6.375,1.327l1.809-8.697l2.85,0.596l-1.81,8.695l8.843,1.84l-0.66,3.173l-20.916-4.353l2.781-13.367
					l2.85,0.592L32.432,123.082z"/>
				<path d="M57.943,102.936l-4.529-0.217l-3.113,7.832l3.444,2.949l-1.274,3.206l-16.955-15.163l0.964-2.424l22.738,0.61
					L57.943,102.936z M40.513,102.046l7.58,6.594l2.425-6.104L40.513,102.046z"/>
				<path d="M68.109,86.046l-17.983-0.165l12.487,8.366l-1.803,2.692L43.063,85.05l1.654-2.469l17.956,0.148l-12.462-8.348
					l1.803-2.693l17.748,11.891L68.109,86.046z"/>
				<path d="M77.752,75.499c-2.297,2.242-4.475,3.316-7.381,3.26l0.059-3.033c2.207,0.027,3.767-0.822,5.334-2.352
					c1.998-1.947,2.32-3.938,0.875-5.42c-0.649-0.666-1.387-1.036-2.151-1.004c-0.743,0.012-1.276,0.238-2.304,0.989l-2.056,1.502
					c-1.413,1.044-2.821,1.577-4.094,1.604c-1.444,0.024-2.751-0.587-3.967-1.832c-2.597-2.664-2.444-6.374,0.735-9.474
					c2.02-1.971,3.939-2.837,6.443-2.891l-0.059,2.906c-1.824,0.02-3.191,0.809-4.481,2.065c-1.804,1.759-1.786,3.755-0.467,5.107
					c0.544,0.559,1.198,0.885,1.963,0.853c0.722-0.033,1.596-0.383,2.409-0.967l1.991-1.439c1.628-1.168,2.757-1.599,3.967-1.646
					c1.551-0.088,3.027,0.609,4.306,1.92C81.617,68.462,80.953,72.38,77.752,75.499z"/>
				<path d="M104.104,56.732l-3.346-3.063l-7.402,4.037l0.765,4.471l-3.029,1.652l-3.354-22.504l2.291-1.25l17.104,15.005
					L104.104,56.732z M91.262,44.905l1.614,9.918l5.77-3.146L91.262,44.905z"/>
				<path d="M121.434,50.569l-6.939-7.285l-3.873,1.188l2.639,8.604l-3.097,0.95l-6.262-20.42l7.915-2.428
					c3.873-1.187,7.104,0.552,8.168,4.022c0.897,2.926-0.309,5.334-2.41,6.67l7.473,7.59L121.434,50.569z M112.439,34.031
					l-4.588,1.407l1.961,6.396l4.59-1.407c2.063-0.634,3.109-2.24,2.494-4.248C116.279,34.171,114.506,33.397,112.439,34.031z"/>
				<path d="M129.297,48.844l-2.088-21.262l13.588-1.334l0.284,2.896l-10.362,1.018l0.609,6.211l8.84-0.867l0.281,2.865l-8.84,0.869
					l0.627,6.392l10.363-1.019l0.285,2.896L129.297,48.844z"/>
				<path d="M167.601,50.323l-0.685-4.483l-8.296-1.497l-2.209,3.961l-3.396-0.613l11.502-19.631l2.567,0.464l3.912,22.413
					L167.601,50.323z M165.018,33.058l-4.963,8.738l6.467,1.167L165.018,33.058z"/>
				<path d="M174.079,52.13l7.679-19.932l3.021,1.164l-6.631,17.217l9.602,3.697l-1.047,2.716L174.079,52.13z"/>
				<path d="M200.167,65.096l0.991-10.014l-3.427-2.158l-4.796,7.613l-2.742-1.727l11.387-18.068l7.004,4.414
					c3.426,2.158,4.217,5.74,2.283,8.812c-1.632,2.588-4.244,3.247-6.627,2.526l-0.875,10.615L200.167,65.096z M206.83,47.489
					l-4.061-2.558l-3.566,5.659l4.061,2.559c1.827,1.152,3.726,0.895,4.845-0.883C209.229,50.491,208.656,48.641,206.83,47.489z"/>
				<path d="M206.596,69.908l14.734-15.46l9.879,9.418l-2.008,2.105l-7.533-7.182l-4.305,4.516l6.427,6.127l-1.987,2.085
					l-6.426-6.126l-4.43,4.646l7.535,7.18l-2.009,2.107L206.596,69.908z"/>
				<path d="M226.545,92.951l2.656-3.675l-4.861-6.885l-4.351,1.274l-1.991-2.817l21.961-5.925l1.506,2.13l-12.93,18.715
					L226.545,92.951z M236.811,78.837l-9.664,2.747l3.79,5.366L236.811,78.837z"/>
				<path d="M237.037,109.78c-1.78-0.693-3.168-2.213-4.061-4.245l-3.015-6.866l19.554-8.588l3.016,6.867
					c0.893,2.033,1.072,4.082,0.379,5.86c-1.188,3.044-4.104,4.161-6.932,5.403C243.149,109.454,240.079,110.966,237.037,109.78z
					 M249.875,101.718c0.544-1.222,0.475-2.502-0.142-3.902l-1.579-3.598l-14.227,6.246l1.58,3.599
					c0.615,1.4,1.51,2.319,2.777,2.744c1.572,0.522,3.699-0.379,6.391-1.562C247.368,104.063,249.195,103.228,249.875,101.718z"/>
				<path d="M247.439,122.021l-8.572,1.951l-0.719-3.159l8.572-1.953l10.839-9.021l0.786,3.452l-8.164,6.444l10.148,2.274
					l0.787,3.452L247.439,122.021z"/>
			</g>
		</g>
		<g>
			<g>
				<path d="M51.303,198.984l-2.417-4.217l-7.29,4.178l-1.611-2.811l18.533-10.627l4.03,7.029c2.075,3.617,1.009,7.307-2.22,9.158
					C57.102,203.546,53.377,202.601,51.303,198.984z M59.934,193.827l-2.329-4.061l-6.168,3.537l2.328,4.061
					c1.119,1.951,3,2.639,4.951,1.518C60.669,197.763,61.054,195.781,59.934,193.827z"/>
				<path d="M59.796,224.316l2.295-3.91l-5.492-6.393l-4.213,1.68l-2.248-2.617l21.304-7.98l1.7,1.98l-11.099,19.857L59.796,224.316
					z M68.678,209.288l-9.361,3.652l4.281,4.984L68.678,209.288z"/>
				<path d="M77.515,239.613l1.909-9.881l-3.213-2.465l-5.479,7.139l-2.57-1.973l13.005-16.945l6.569,5.041
					c3.213,2.465,3.671,6.107,1.46,8.986c-1.863,2.428-4.525,2.844-6.831,1.906l-1.851,10.492L77.515,239.613z M85.772,222.691
					l-3.808-2.922l-4.074,5.309l3.808,2.922c1.715,1.314,3.63,1.234,4.908-0.434C87.886,225.902,87.486,224.005,85.772,222.691z"/>
				<path d="M103.038,233.089l-8.112,16.568l-2.91-1.422l8.112-16.57l-5.28-2.586l1.279-2.611l13.471,6.594l-1.28,2.613
					L103.038,233.089z"/>
				<path d="M107.837,254.843l6.468-20.354l3.087,0.979l-6.467,20.355L107.837,254.843z"/>
				<path d="M127.461,259.716c-2.195-0.334-3.972-1.424-5.204-3.1c-1.761-2.391-1.373-4.73-0.756-8.795
					c0.619-4.064,0.946-6.412,3.338-8.172c1.675-1.232,3.696-1.744,5.892-1.41c3.885,0.592,6.444,3.318,6.546,7.643l-3.265-0.496
					c-0.179-2.211-1.377-3.914-3.72-4.27c-1.246-0.189-2.446,0.113-3.31,0.803c-1.21,0.969-1.632,2.148-2.278,6.391
					c-0.645,4.24-0.592,5.494,0.273,6.779c0.621,0.914,1.676,1.559,2.922,1.748c2.343,0.357,4.022-0.904,4.852-2.963l3.232,0.492
					C134.631,258.47,131.287,260.298,127.461,259.716z"/>
				<path d="M143.801,260.847l-0.059-21.355l3.239-0.008l0.059,21.355L143.801,260.847z"/>
				<path d="M163.744,250.841l-4.799,0.77l1.33,8.295l-3.199,0.514l-3.382-21.094l7.998-1.281c4.118-0.66,7.191,1.643,7.78,5.316
					C170.061,247.034,167.862,250.181,163.744,250.841z M161.976,240.947l-4.621,0.74l1.125,7.02l4.621-0.74
					c2.222-0.355,3.528-1.871,3.173-4.094C165.917,241.652,164.197,240.589,161.976,240.947z"/>
				<path d="M190.485,251.808l-2.854-3.523l-7.917,2.896l0.093,4.533l-3.239,1.186l0.015-22.75l2.451-0.896l14.693,17.371
					L190.485,251.808z M179.538,238.21l0.129,10.047l6.171-2.256L179.538,238.21z"/>
				<path d="M195.982,228.202l9.296,15.939l-2.799,1.633l-9.296-15.939l-5.08,2.961l-1.466-2.514l12.96-7.557l1.466,2.514
					L195.982,228.202z"/>
				<path d="M216.747,236.281l-13.324-16.688l2.531-2.021l13.325,16.688L216.747,236.281z"/>
				<path d="M235.789,217.853l-17.784-2.641l11.215,10.006l-2.156,2.416l-15.939-14.219l1.977-2.215l17.764,2.619l-11.193-9.984
					l2.158-2.42l15.938,14.221L235.789,217.853z"/>
				<path d="M248.268,194.37c0.707,2.246,0.361,4.354-0.731,6.318c-1.079,1.941-2.719,3.225-4.717,3.795
					c-2.856,0.816-4.913-0.361-8.504-2.357c-3.593-1.996-5.679-3.121-6.493-5.977c-0.571-1.998-0.375-4.018,0.732-6.01
					c2.198-3.959,6.077-4.824,9.567-3.57l-1.589,2.857c-2.308-0.664-4.271,0.027-5.437,2.127c-0.612,1.102-0.72,2.344-0.376,3.395
					c0.486,1.471,1.418,2.264,5.167,4.348c3.749,2.082,4.94,2.471,6.448,2.107c1.071-0.264,2.044-1.027,2.656-2.127
					c0.685-1.232,0.811-2.57,0.379-3.771c-0.407-1.119-1.205-1.904-2.412-2.576l-1.049-0.582l-2.214,3.986l-2.412-1.342l3.788-6.816
					l2.857,1.588C246.343,191.105,247.642,192.409,248.268,194.37z"/>
			</g>
		</g>
	</g>
</g>
</svg>
