<?xml version="1.0" encoding="utf-8"?>
<!-- Generator: Adobe Illustrator 16.0.0, SVG Export Plug-In . SVG Version: 6.00 Build 0)  -->
<!DOCTYPE svg PUBLIC "-//W3C//DTD SVG 1.1//EN" "http://www.w3.org/Graphics/SVG/1.1/DTD/svg11.dtd">
<svg version="1.1" id="Capa_1" xmlns="http://www.w3.org/2000/svg" xmlns:xlink="http://www.w3.org/1999/xlink" x="0px" y="0px"
	 width="290.039px" height="287.096px" viewBox="0 0 290.039 287.096" enable-background="new 0 0 290.039 287.096"
	 xml:space="preserve">
<g>
	<path d="M259.624,69.057c0.478,0.658,0.845,1.395,1.239,2.106c0.554,0.995,1.08,2.007,1.628,3.006
		c0.866,1.584,1.216,3.604,2.614,4.744c0.746,0.607,2.278,2.271,2.877,1.498c0.678-0.869-1.764-3.364-2.057-4.448
		c-0.008-0.027-0.008-0.055-0.014-0.079c-1.23-2.239-1.321-4.414-2.659-6.587c-1.41-2.291-2.465-4.943-4.505-6.703
		c-0.943-0.814-1.848-1.741-3.021-2.043c-0.031-0.008-0.067,0.022-0.093,0.03c-0.284,0.064-0.851-0.168-1.171,0.026
		c-0.248,0.15-0.359,0.503-0.332,0.775c0.139,1.366,1.502,2.334,2.311,3.452C257.475,66.266,258.593,67.63,259.624,69.057z"/>
	<path d="M284.506,137.841c-0.084-2.643-0.383-5.279-0.699-7.904c-0.287-2.376-0.548-4.761-0.873-7.132
		c-0.084-0.253-0.164-0.509-0.258-0.76c-1.854-5.058-3.613-10.638-4.469-16.188c-0.08-0.132-0.148-0.279-0.189-0.459
		c-0.572-2.513-1.283-5-1.479-7.571c-0.726-1.841-1.261-3.774-1.728-5.659c-0.312-0.783-0.619-1.568-0.949-2.346
		c-0.844-1.99-1.262-4.289-3.026-5.836c-0.104-0.09-0.149-0.266-0.183-0.412c-0.066-0.33-0.09-0.684-0.143-1.02
		c-0.246-0.117-0.494-0.225-0.749-0.325c-0.135-0.054-0.237-0.172-0.374-0.2c-0.439-0.091-0.988-0.143-1.318,0.146
		c-0.012,0.01-0.002,0.025-0.006,0.042c-0.063,0.299-0.076,0.615-0.065,0.938c0.021,0.111,0.049,0.223,0.065,0.332
		c0.027,0.159,0.024,0.314,0.01,0.468c0.055,0.337,0.13,0.677,0.225,1.017c0.92,2.031,1.78,4.088,2.68,6.13
		c0.266,0.606,0.646,1.169,0.875,1.788c0.73,1.974,1.444,3.955,2.114,5.952c0.91,2.713,1.728,5.458,2.668,8.16
		c1.153,3.31,1.593,6.776,2.371,10.17c0.299,1.295,0.33,2.647,0.543,3.968c0.041,0.263,0.354,0.479,0.347,0.471
		c0.159,0.994,0.276,1.779,0.414,2.563c0.12,0.688,0.342,1.368,0.377,2.059c0.121,2.26,0.108,4.527,0.276,6.781
		c0.131,1.758,0.503,3.496,0.666,5.252c0.065,0.729-0.205,1.486-0.19,2.229c0.023,1.427,0.241,2.853,0.196,4.272
		c-0.052,1.707-0.396,3.405-0.428,5.112c-0.037,2.075,0.166,4.155,0.168,6.234c0.001,0.738-0.332,1.471-0.427,2.216
		c-0.127,1.017-0.17,2.042-0.247,3.063c-0.011,0.119,0.043,0.271-0.015,0.355c-0.684,1.049-0.41,2.219-0.521,3.354
		c-0.146,1.5-0.685,2.957-0.996,4.444c-0.612,2.925-1.142,5.867-1.804,8.782c-0.278,1.232-0.821,2.404-1.213,3.615
		c-0.25,0.773-0.361,1.6-0.67,2.345c-0.705,1.711-1,3.526-1.506,5.286c-0.021,0.076,0.004,0.18-0.037,0.233
		c-1.836,2.499-2.188,5.64-3.617,8.326c-1.166,2.188-1.973,4.571-3.11,6.779c-1.16,2.245-2.541,4.38-3.799,6.577
		c-0.228,0.396-0.257,0.901-0.488,1.29c-0.512,0.858-1.095,1.675-1.647,2.509c-0.949,1.43-1.903,2.854-2.842,4.293
		c-0.166,0.256-0.216,0.592-0.396,0.828c-0.169,0.226,0.01,0.9-0.672,0.582c-0.063-0.027-0.407,0.306-0.383,0.363
		c0.444,1.021-0.455,1.295-0.924,1.861c-0.629,0.76-1.211,1.521-1.662,2.483c-0.707,1.511-2.117,2.688-3.225,4.011
		c-0.303,0.359-0.568,0.754-0.88,1.105c-0.703,0.801-1.423,1.588-2.14,2.379c-0.769,0.852-1.53,1.703-2.31,2.543
		c-1.319,1.428-2.655,2.836-3.974,4.267c-0.85,0.919-1.6,1.941-2.526,2.771c-1.597,1.422-3.325,2.695-4.942,4.094
		c-1.019,0.881-1.935,1.873-2.896,2.816c-0.067,0.065-0.129,0.171-0.207,0.188c-1.635,0.32-2.61,1.525-3.627,2.684
		c-0.094,0.104-0.187,0.245-0.31,0.293c-1.752,0.689-3.106,1.921-4.471,3.166c-0.387,0.354-1.037,0.403-1.478,0.718
		c-1.247,0.893-2.425,1.882-3.685,2.753c-0.313,0.217-0.853,0.086-1.261,0.203c-0.286,0.084-0.69,0.269-0.766,0.494
		c-0.451,1.398-1.656,1.303-2.746,1.656c-1.056,0.343-1.991,1.121-2.897,1.813c-1.437,1.094-2.902,2.073-4.677,2.566
		c-0.721,0.199-1.377,0.641-2.06,0.979c-1.416,0.705-2.797,1.497-4.258,2.101c-1.453,0.599-2.99,0.994-4.479,1.509
		c-0.817,0.283-1.799,0.438-2.38,0.992c-0.813,0.772-1.743,0.894-2.702,1.141c-1.375,0.355-2.729,0.791-4.104,1.154
		c-1.473,0.39-2.971,0.693-4.437,1.109c-1.646,0.471-3.26,1.047-4.901,1.529c-1.063,0.314-2.146,0.582-3.231,0.813
		c-1.461,0.309-2.927,0.607-4.402,0.818c-1.03,0.146-2.086,0.143-3.131,0.199c-0.16,0.008-0.373-0.073-0.471,0.004
		c-1.729,1.347-3.812,0.444-5.693,0.885c-1.282,0.303-2.688,0.047-4.024,0.16c-1.563,0.137-3.106,0.475-4.67,0.596
		c-1.357,0.104-2.729,0.043-4.097,0.032c-0.756-0.005-1.514-0.042-2.268-0.084c-2.297-0.128-4.593-0.289-6.891-0.386
		c-1.103-0.047-2.213,0.084-3.314,0.025c-1.208-0.064-2.41-0.251-3.613-0.395c-0.193-0.021-0.389-0.149-0.57-0.128
		c-2.347,0.302-4.502-0.665-6.752-0.991c-1.401-0.204-2.84-0.191-4.22-0.479c-0.884-0.186-1.614-0.592-2.651-0.334
		c-0.691,0.174-1.587-0.59-2.42-0.836c-1.744-0.52-3.529-0.904-5.257-1.474c-1.31-0.431-2.827,0.012-3.981-1.275
		c-0.531-0.593-1.739-0.555-2.62-0.862c-1.417-0.494-2.811-1.057-4.226-1.557c-1.094-0.388-2.223-0.674-3.304-1.091
		c-1.366-0.527-2.7-1.144-4.048-1.72c-0.527-0.226-1.063-0.435-1.584-0.676c-1.098-0.508-2.203-1.002-3.278-1.557
		c-1.425-0.733-2.825-1.516-4.231-2.283c-1.486-0.813-2.887-1.982-4.473-2.351c-1.298-0.302-1.813-1.293-2.763-1.848
		c-2.289-1.335-4.473-2.85-6.713-4.27c-1.448-0.917-2.968-1.729-4.365-2.717c-0.818-0.577-1.423-1.447-2.185-2.117
		c-3.051-2.685-5.963-5.563-9.259-7.904c-1.583-1.124-2.274-2.808-3.708-3.956c-1.426-1.143-2.619-2.596-3.818-3.995
		c-2.998-3.501-6.03-6.979-8.875-10.603c-1.719-2.189-3.135-4.62-4.649-6.968c-1.752-2.715-3.55-5.403-5.161-8.199
		c-1.185-2.056-2.104-4.261-3.141-6.398c-2.727-5.632-5.1-11.416-6.943-17.39c-1.309-4.244-2.404-8.563-3.386-12.896
		c-0.872-3.85-1.52-7.755-2.146-11.652c-0.313-1.944-0.434-3.932-0.504-5.9c-0.202-5.646-0.432-11.295-0.452-16.944
		c-0.009-2.711,0.465-5.422,0.653-8.137c0.087-1.262,0.014-2.535,0.014-3.803c0.041,0.026,0.082,0.053,0.123,0.08
		c0.201-0.784,0.445-1.562,0.596-2.354c0.711-3.727,1.209-7.508,2.137-11.179c1.281-5.067,2.708-10.112,4.397-15.057
		c1.409-4.124,3.175-8.143,4.991-12.109c1.708-3.731,3.416-7.512,5.615-10.958c3.424-5.363,7.13-10.563,10.973-15.639
		c2.582-3.41,5.615-6.48,8.431-9.721c1.054-1.211,1.978-2.548,3.11-3.678c1.17-1.166,2.523-2.149,3.796-3.214
		c0.968-0.811,1.929-1.626,2.903-2.425c2.285-1.873,4.521-3.813,6.874-5.594c7.604-5.762,15.797-10.568,24.429-14.6
		c6.805-3.178,13.832-5.841,21.111-7.707c5.16-1.323,10.395-2.392,15.635-3.354c3.052-0.562,6.177-0.771,9.279-0.987
		c3.602-0.253,7.214-0.434,10.823-0.476c3.511-0.04,7.041-0.085,10.522,0.267c5.111,0.514,10.201,1.299,15.275,2.118
		c3.082,0.497,6.135,1.202,9.17,1.941c5.646,1.379,11.117,3.309,16.502,5.479c2.383,0.961,4.784,1.874,7.133,2.911
		c1.303,0.575,2.471,1.452,3.771,2.031c3.063,1.365,5.818,3.283,8.793,4.814c1.75,0.9,3.354,2.101,4.966,3.25
		c2.841,2.029,5.659,4.09,8.439,6.201c1.69,1.284,3.306,2.674,4.933,4.041c1.559,1.307,3.115,2.613,4.624,3.973
		c1.338,0.48,2.603,1.027,3.317,1.896c2.066,2.501,4.908,4.004,7.054,6.317c0.274,0.3,2.237,4.444,2.875,4.089
		c0.465-0.261-1.751-3.758-1.403-4.146c-0.039-0.046-0.08-0.091-0.119-0.136c-0.533-0.616-1.189-1.127-1.725-1.745
		c-0.771-0.894-1.314-2.089-2.256-2.69c-0.953-0.609-1.383-1.486-2.061-2.244c-1.35-1.514-2.768-2.988-4.305-4.311
		c-3.027-2.601-6.131-5.113-9.25-7.604c-2.218-1.771-4.482-3.483-6.785-5.146c-1.539-1.11-3.172-2.092-4.775-3.109
		c-1.113-0.707-2.244-1.385-3.377-2.06c-1.079-0.644-2.172-1.267-3.26-1.896c-1.016-0.589-1.996-1.258-3.059-1.744
		c-1.803-0.827-3.678-1.497-5.486-2.313c-2.648-1.193-5.25-2.5-7.91-3.665c-0.84-0.368-1.853-0.327-2.709-0.667
		c-1.654-0.658-3.258-1.456-4.885-2.19c-0.104-0.048-0.265-0.114-0.334-0.07c-0.803,0.508-1.383,0.136-2.043-0.36
		c-0.521-0.395-1.186-0.648-1.824-0.84c-1.256-0.373-2.523-0.824-3.813-0.928c-1.311-0.104-2.432-1.286-3.84-0.617
		c-0.91-0.865-2.065-0.901-3.229-1.045c-1.371-0.169-2.718-0.533-4.078-0.782c-0.771-0.142-1.55-0.253-2.33-0.325
		c-1.653-0.151-3.313-0.259-4.967-0.418c-0.306-0.028-0.601-0.208-0.892-0.338c-0.197-0.088-0.379-0.301-0.572-0.306
		c-1.103-0.028-2.209,0.041-3.31-0.021c-1.575-0.086-3.147-0.24-4.719-0.394c-0.944-0.092-1.883-0.313-2.826-0.332
		c-0.979-0.021-1.965,0.146-2.947,0.201c-1.474,0.077-2.948,0.139-4.423,0.186c-1.122,0.036-2.246,0.047-3.369,0.057
		c-1.206,0.01-2.414-0.021-3.619,0.014c-0.521,0.015-1.038,0.173-1.561,0.212c-1.383,0.103-2.774,0.111-4.147,0.279
		c-1.151,0.142-2.272,0.532-3.425,0.671c-1.348,0.158-2.74,0.018-4.066,0.262c-3.041,0.561-6.066,1.227-9.074,1.944
		c-2.919,0.695-5.871,1.248-8.648,2.513c-1.548,0.705-3.303,0.945-4.945,1.455c-1.193,0.371-2.367,0.811-3.529,1.271
		c-0.941,0.375-1.834,0.873-2.781,1.229c-0.392,0.146-0.938-0.078-1.297,0.101c-1.9,0.941-3.613,2.309-5.852,2.45
		c-0.141,0.009-0.277,0.13-0.408,0.212c-0.827,0.517-1.624,1.087-2.484,1.538c-1.055,0.553-2.205,0.927-3.233,1.521
		c-1.448,0.834-2.719,2.104-4.256,2.613c-1.517,0.503-2.643,1.318-3.753,2.339c-0.316,0.289-0.836,0.359-1.547,0.646
		c-0.26,0.184-0.762,0.594-1.316,0.913c-0.462,0.266-1.116,0.298-1.457,0.653c-1.188,1.236-2.57,2.153-4.051,3.004
		c-0.814,0.467-1.357,1.383-2.125,1.957c-1.752,1.309-3.633,2.448-5.34,3.813c-1.777,1.419-3.492,2.939-5.089,4.558
		c-1.899,1.926-4.266,3.386-5.733,5.739c-0.248,0.398-0.504,0.883-0.885,1.093c-2.689,1.474-4.063,4.191-6.07,6.308
		c-0.77,0.811-1.492,1.667-2.219,2.517c-0.701,0.82-1.389,1.653-2.067,2.492c-0.431,0.532-0.833,1.089-1.251,1.632
		c-0.188,0.245-0.422,0.465-0.57,0.732c-0.677,1.217-1.327,2.451-1.999,3.672c-0.085,0.154-0.253,0.262-0.361,0.406
		c-0.681,0.912-1.424,1.787-2.014,2.754c-0.614,1.009-1.022,2.142-1.624,3.159c-0.724,1.228-1.619,2.354-2.328,3.589
		c-1.646,2.866-3.369,5.692-4.674,8.751c-0.743,1.744-1.717,3.391-2.445,5.141c-0.949,2.282-1.742,4.628-2.633,6.937
		c-0.454,1.176-1.307,2.301-1.396,3.49c-0.154,2.067-0.872,3.831-1.89,5.557c-0.121,0.205-0.008,0.539-0.056,0.804
		c-0.224,1.229-0.23,2.579-0.782,3.644c-0.389,0.751-0.76,1.322-0.608,2.195c0.062,0.354-0.194,0.763-0.313,1.146
		c-0.244,0.784-0.555,1.559-0.724,2.359c-0.146,0.69-0.103,1.418-0.194,2.123c-0.173,1.328-0.406,2.648-0.57,3.979
		c-0.183,1.479-0.24,2.979-0.492,4.443c-0.197,1.151-0.748,2.248-0.889,3.399c-0.209,1.714-0.217,3.455-0.27,5.185
		c-0.037,1.205,0.045,2.415-0.029,3.616c-0.04,0.652-0.426,1.289-0.428,1.936c-0.002,1.547,0.119,3.096,0.217,4.641
		c0.031,0.506,0.343,1.083,0.185,1.496c-1.041,2.712,0.353,5.424-0.099,8.168c-0.268,1.627,0.21,3.382,0.406,5.072
		c0.038,0.332,0.322,0.633,0.557,1.064c-0.045,0.098-0.326,0.404-0.29,0.67c0.273,1.978,0.618,3.941,0.923,5.912
		c0.109,0.713-0.086,1.811,0.301,2.068c0.741,0.498,0.4,0.979,0.413,1.502c0.005,0.198-0.009,0.404,0.037,0.594
		c0.218,0.911,0.481,1.813,0.674,2.729c0.347,1.645,0.591,3.313,0.999,4.941c0.342,1.363,0.875,2.679,1.285,4.027
		c0.089,0.295-0.066,0.666,0.029,0.955c0.682,2.06,1.396,4.106,2.107,6.158c0.281,0.811,0.564,1.619,0.879,2.419
		c0.682,1.732,1.348,3.478,2.088,5.187c0.676,1.557,1.476,3.06,2.159,4.611c0.889,2.018,1.595,4.125,2.604,6.079
		c1.189,2.304,2.626,4.479,3.94,6.722c1.13,1.926,2.16,3.915,3.377,5.783c1.396,2.142,2.906,4.215,4.453,6.253
		c1.176,1.551,2.616,2.911,3.717,4.509c2.916,4.237,6.486,7.88,10.104,11.488c0.558,0.557,1.206,1.021,1.783,1.561
		c2.601,2.423,5.144,4.912,7.805,7.27c1.567,1.388,3.286,2.613,4.994,3.834c3.028,2.157,6.015,4.395,9.175,6.344
		c3.859,2.378,7.814,4.623,11.853,6.684c3.806,1.943,7.739,3.651,11.682,5.31c2.403,1.011,4.901,1.825,7.407,2.555
		c5.021,1.464,10.032,3.011,15.133,4.143c4.542,1.007,9.186,1.604,13.81,2.182c3.409,0.425,6.857,0.654,10.294,0.725
		c3.82,0.077,7.648-0.085,11.472-0.219c2.211-0.077,4.424-0.241,6.624-0.478c3.164-0.342,6.321-0.744,9.475-1.189
		c6.171-0.871,12.195-2.4,18.144-4.225c9.123-2.801,17.848-6.557,26.216-11.146c5.678-3.113,11.104-6.622,16.278-10.501
		c5.002-3.748,9.763-7.793,14.181-12.227c1.255-1.26,2.56-2.472,3.758-3.779c1.653-1.807,3.31-3.623,4.821-5.546
		c3.095-3.935,6.189-7.872,9.111-11.936c3.838-5.332,7.062-11.054,9.825-17.005c2.156-4.643,4.199-9.352,6-14.143
		c2.632-6.996,4.617-14.193,5.802-21.59c0.567-3.563,1.2-7.118,1.637-10.697c0.373-3.071,0.619-6.168,0.718-9.261
		C284.628,145.375,284.624,141.602,284.506,137.841z"/>
</g>
<text transform="matrix(1 0 0 1 69.8594 167.7454)" font-family="'Oswald-Regular'" font-size="58.7848">23429</text>
<g>
	<g>
		<g>
			<path d="M41.333,95.799l5.849,2.864l3.907-7.977l2.613,1.28l-3.906,7.977l8.111,3.973l-1.426,2.91L37.295,97.43L43.3,85.167
				l2.615,1.28L41.333,95.799z"/>
			<path d="M71.781,81.707l-4.318-1.385l-5.039,6.761l2.563,3.741l-2.062,2.767L50.475,74.547l1.56-2.093l21.809,6.487
				L71.781,81.707z M55.173,76.326l5.611,8.337l3.926-5.269L55.173,76.326z"/>
			<path d="M86.855,67.352l-17.269-5.024l9.76,11.432l-2.465,2.104l-13.87-16.248l2.26-1.928l17.248,5.001l-9.741-11.411
				l2.466-2.104l13.869,16.248L86.855,67.352z"/>
			<path d="M100.032,59.246c-2.837,1.501-5.231,1.918-8.002,1.042l0.913-2.894c2.109,0.649,3.846,0.274,5.781-0.749
				c2.467-1.304,3.339-3.123,2.371-4.953c-0.436-0.821-1.038-1.386-1.78-1.569c-0.717-0.199-1.292-0.132-2.489,0.298l-2.397,0.859
				c-1.65,0.603-3.151,0.716-4.381,0.382c-1.39-0.384-2.473-1.34-3.286-2.878c-1.739-3.289-0.544-6.807,3.381-8.882
				c2.493-1.317,4.581-1.607,6.998-0.951l-0.876,2.771c-1.756-0.496-3.291-0.126-4.883,0.715c-2.228,1.179-2.774,3.097-1.891,4.768
				c0.364,0.689,0.899,1.188,1.642,1.372c0.701,0.172,1.639,0.083,2.585-0.247l2.316-0.817c1.892-0.661,3.097-0.755,4.271-0.46
				c1.511,0.355,2.73,1.441,3.586,3.06C105.728,53.587,103.984,57.156,100.032,59.246z"/>
			<path d="M125.923,40.716l1.765,8.611l-3.175,0.65l-1.765-8.611l-8.783-11.032l3.468-0.711l6.265,8.303l2.494-10.098l3.469-0.71
				L125.923,40.716z"/>
			<path d="M149.412,47.624l-1.539-4.267l-8.431,0.135l-1.4,4.315l-3.451,0.056l7.487-21.489l2.609-0.041l8.174,21.235
				L149.412,47.624z M143.535,31.183l-3.177,9.534l6.57-0.105L143.535,31.183z"/>
			<path d="M166.234,49.828l6.029-20.489l13.096,3.853l-0.822,2.791l-9.986-2.938l-1.762,5.986l8.52,2.507l-0.814,2.763
				l-8.518-2.507l-1.813,6.159l9.986,2.939l-0.822,2.791L166.234,49.828z"/>
			<path d="M189.613,58.803c-2.838-1.497-4.531-3.239-5.369-6.021l2.904-0.875c0.652,2.107,1.939,3.33,3.877,4.352
				c2.465,1.303,4.457,0.997,5.424-0.833c0.434-0.822,0.561-1.638,0.293-2.354c-0.238-0.703-0.619-1.141-1.648-1.888l-2.061-1.495
				c-1.426-1.024-2.365-2.197-2.781-3.401c-0.467-1.365-0.289-2.797,0.523-4.335c1.734-3.289,5.313-4.283,9.238-2.212
				c2.494,1.315,3.908,2.876,4.729,5.242l-2.781,0.839c-0.58-1.73-1.752-2.79-3.342-3.63c-2.229-1.177-4.121-0.547-5.002,1.125
				c-0.365,0.689-0.475,1.411-0.209,2.128c0.254,0.676,0.855,1.401,1.66,1.995l1.98,1.453c1.611,1.188,2.369,2.131,2.785,3.267
				c0.561,1.448,0.35,3.068-0.504,4.686C197.496,60.319,193.564,60.889,189.613,58.803z"/>
			<path d="M218.422,55.711L206.834,70.07l-2.521-2.034L215.9,53.676l-4.576-3.693l1.828-2.264l11.672,9.42l-1.828,2.265
				L218.422,55.711z"/>
			<path d="M221.768,85.483l2.299-3.91l-5.492-6.397l-4.213,1.68l-2.246-2.618l21.309-7.974l1.701,1.982l-11.109,19.856
				L221.768,85.483z M230.66,70.458l-9.365,3.647l4.279,4.986L230.66,70.458z M236.287,66.418l-1.506-1.753l5.154-1.459l2.207,2.572
				L236.287,66.418z"/>
			<path d="M232.461,103.365l8.703-15.73l-13.297,6.997l-1.51-2.867l18.898-9.945l1.385,2.629l-8.678,15.717l13.271-6.983
				l1.51,2.866l-18.9,9.945L232.461,103.365z"/>
		</g>
	</g>
	<g>
		<g>
			<path d="M53.415,201.895l-2.553-4.135l-7.146,4.41l-1.7-2.757l18.171-11.216l4.255,6.892c2.188,3.547,1.242,7.269-1.922,9.222
				C59.355,206.265,55.605,205.442,53.415,201.895z M61.871,196.463l-2.458-3.98l-6.048,3.732l2.457,3.982
				c1.182,1.914,3.082,2.539,4.996,1.357C62.733,200.373,63.051,198.377,61.871,196.463z"/>
			<path d="M62.72,226.948l2.169-3.982l-5.695-6.214l-4.156,1.814l-2.33-2.543l21.035-8.661l1.765,1.926L65.05,229.49L62.72,226.948
				z M71.115,211.644l-9.238,3.949l4.439,4.845L71.115,211.644z"/>
			<path d="M80.92,241.666l1.592-9.937l-3.291-2.36l-5.247,7.312l-2.633-1.889l12.455-17.354l6.727,4.827
				c3.291,2.361,3.865,5.986,1.748,8.936c-1.784,2.486-4.432,2.986-6.767,2.123l-1.513,10.548L80.92,241.666z M88.631,224.49
				l-3.899-2.799l-3.901,5.436l3.899,2.799c1.756,1.26,3.668,1.117,4.892-0.589C90.846,227.63,90.386,225.749,88.631,224.49z"/>
			<path d="M106.221,234.329l-7.576,16.82l-2.954-1.33l7.576-16.82l-5.36-2.415l1.195-2.652l13.675,6.159l-1.195,2.653
				L106.221,234.329z"/>
			<path d="M111.715,255.916l5.812-20.55l3.118,0.881l-5.812,20.55L111.715,255.916z"/>
			<path d="M131.486,260.158c-2.204-0.264-4.015-1.295-5.301-2.931c-1.836-2.334-1.524-4.684-1.037-8.767
				c0.488-4.081,0.739-6.438,3.073-8.274c1.636-1.285,3.639-1.862,5.843-1.599c3.902,0.467,6.549,3.109,6.788,7.43l-3.278-0.393
				c-0.249-2.205-1.501-3.866-3.854-4.147c-1.252-0.149-2.441,0.192-3.281,0.907c-1.179,1.008-1.563,2.2-2.073,6.461
				c-0.508,4.261-0.416,5.51,0.491,6.768c0.649,0.893,1.724,1.505,2.976,1.655c2.353,0.28,3.992-1.033,4.755-3.119l3.246,0.388
				C138.613,258.683,135.33,260.617,131.486,260.158z"/>
			<path d="M147.854,260.763l-0.754-21.342l3.238-0.114l0.754,21.342L147.854,260.763z"/>
			<path d="M167.467,250.124l-4.773,0.924l1.596,8.247l-3.18,0.616l-4.059-20.974l7.953-1.538c4.096-0.792,7.242,1.411,7.949,5.063
				C173.658,246.116,171.561,249.332,167.467,250.124z M165.381,240.291l-4.596,0.888l1.352,6.981l4.596-0.889
				c2.209-0.427,3.467-1.984,3.039-4.193C169.344,240.868,167.59,239.864,165.381,240.291z"/>
			<path d="M194.225,250.232l-2.965-3.431l-7.82,3.149l0.238,4.528l-3.201,1.288l-0.715-22.739l2.422-0.975l15.242,16.891
				L194.225,250.232z M182.848,236.993l0.451,10.037l6.094-2.454L182.848,236.993z"/>
			<path d="M215.547,237.485l-16.633-6.822l8.492,12.398l-2.672,1.831l-12.068-17.619l2.451-1.678l16.615,6.796l-8.475-12.372
				l2.672-1.831l12.068,17.619L215.547,237.485z"/>
			<path d="M233.643,217.645c0.072,1.908-0.771,3.787-2.281,5.415l-5.102,5.497l-15.66-14.528l5.102-5.499
				c1.51-1.626,3.32-2.607,5.229-2.679c3.266-0.122,5.451,2.11,7.715,4.211C230.91,212.164,233.52,214.38,233.643,217.645z
				 M221.137,209.07c-1.34-0.014-2.484,0.56-3.525,1.683l-2.674,2.88l11.393,10.571l2.674-2.882
				c1.041-1.122,1.527-2.308,1.412-3.641c-0.146-1.65-1.818-3.244-3.975-5.243C224.287,210.438,222.793,209.092,221.137,209.07z"/>
			<path d="M247.105,197.468c0.514,2.014,0.244,4.052-0.918,6.011c-1.166,1.961-2.811,3.146-4.824,3.66
				c-2.879,0.733-4.9-0.503-8.434-2.601c-3.533-2.099-5.586-3.283-6.32-6.16c-0.512-2.015-0.26-4.027,0.906-5.987
				c1.162-1.96,2.824-3.172,4.838-3.684c2.877-0.733,4.885,0.527,8.418,2.626S246.373,194.59,247.105,197.468z M232.773,191.816
				c-1.078,0.232-2.115,0.978-2.758,2.062c-0.643,1.082-0.803,2.35-0.488,3.407c0.443,1.485,1.367,2.278,5.057,4.468
				c3.688,2.19,4.826,2.623,6.344,2.302c1.078-0.231,2.113-0.976,2.758-2.06c0.643-1.083,0.801-2.35,0.488-3.407
				c-0.443-1.484-1.369-2.278-5.059-4.468C235.43,191.928,234.291,191.496,232.773,191.816z"/>
		</g>
	</g>
</g>
</svg>
