<?xml version="1.0" encoding="utf-8"?>
<!-- Generator: Adobe Illustrator 16.0.0, SVG Export Plug-In . SVG Version: 6.00 Build 0)  -->
<!DOCTYPE svg PUBLIC "-//W3C//DTD SVG 1.1//EN" "http://www.w3.org/Graphics/SVG/1.1/DTD/svg11.dtd">
<svg version="1.1" id="Capa_1" xmlns="http://www.w3.org/2000/svg" xmlns:xlink="http://www.w3.org/1999/xlink" x="0px" y="0px"
	 width="248.809px" height="291.102px" viewBox="0 0 248.809 291.102" enable-background="new 0 0 248.809 291.102"
	 xml:space="preserve">
<g>
	<rect x="33.318" y="34.381" fill="#FB8C5A" width="182.174" height="222.422"/>
	<g>
		<g display="none">
			<path display="inline" fill-rule="evenodd" clip-rule="evenodd" fill="#FFFFFF" d="M189.266,85.777
				c-0.336,0-0.58-0.101-0.749-0.307c-0.323-0.396-0.378-1.206-0.157-2.28c0.01-0.048,0.006-0.098-0.012-0.143
				c-0.062-0.152-0.246-0.615-0.639-0.615c-0.313,0-0.547,0.307-0.695,0.538c-1.283,1.887-3.383,2.223-5.413,2.548l-0.379,0.061
				c-0.792,0.129-1.653,0.189-2.71,0.189c-0.736,0-1.477-0.029-2.216-0.058c-0.679-0.026-1.356-0.052-2.03-0.057l-0.658,0.007
				c-0.414,0-0.826-0.032-1.042-0.268c-0.171-0.187-0.237-0.521-0.196-0.993c0.092-1.035,0.553-1.155,0.891-1.155
				c0.294,0,0.66,0.105,1.089,0.313c1.243,0.601,2.058,0.857,2.722,0.857c1.768,0,2.08-1.946,2.16-3.411
				c0.105-0.378,2.156-2.441,4.153-2.441c0.308,0,0.603,0.049,0.876,0.147c1.195,0.423,2.516,0.442,3.792,0.461
				c2.718,0.04,5.284,0.078,6.949,3.645c0.278,0.598,0.834,0.901,1.649,0.901c0.879,0,1.965-0.332,3.114-0.682
				c1.098-0.335,2.233-0.681,3.166-0.717c0.104,0.058,0.305,0.094,0.501,0.094l0,0c0.203,0,0.406-0.039,0.604-0.117
				c0.605,0.02,1.059,0.16,1.295,0.444c0.211,0.254,0.268,0.66,0.167,1.208c-0.111,0.615-0.423,0.901-0.981,0.901
				c-0.243,0-0.525-0.054-0.863-0.165c-1.603-0.525-3.219-0.781-4.939-0.781c-3.125,0-6.074,0.858-8.547,1.697
				C189.823,85.718,189.52,85.777,189.266,85.777z"/>
			<path display="inline" fill="#FB8C5A" d="M183.384,78.815c0.278,0,0.546,0.044,0.793,0.132c1.233,0.437,2.574,0.457,3.871,0.476
				c2.638,0.039,5.128,0.076,6.727,3.5c0.224,0.48,0.597,0.797,1.11,0.946c-2.1,0.309-4.066,0.907-5.799,1.495
				c-0.318,0.108-0.594,0.163-0.82,0.163c-0.341,0-0.48-0.123-0.555-0.215c-0.271-0.332-0.31-1.087-0.106-2.071
				c0.02-0.096,0.011-0.195-0.025-0.286c-0.204-0.513-0.497-0.772-0.87-0.772c-0.436,0-0.726,0.372-0.898,0.642
				c-1.226,1.803-3.271,2.13-5.25,2.447l-0.379,0.061c-0.778,0.127-1.627,0.187-2.67,0.187c-0.729,0-1.48-0.029-2.206-0.057
				c-0.681-0.026-1.362-0.053-2.038-0.057h-0.055c-0.102,0-0.207,0.002-0.311,0.004c-0.099,0.001-0.197,0.003-0.295,0.003
				c-0.34,0-0.707-0.022-0.857-0.187c-0.121-0.132-0.166-0.409-0.131-0.802c0.081-0.927,0.459-0.927,0.641-0.927
				c0.252,0,0.592,0.099,0.98,0.288c1.279,0.618,2.125,0.882,2.83,0.882c1.955,0,2.314-2.028,2.406-3.586
				C179.705,80.659,181.547,78.815,183.384,78.815 M204.03,82.565c0.561,0.012,0.934,0.125,1.108,0.335
				c0.161,0.194,0.2,0.531,0.113,1.003c-0.104,0.577-0.37,0.696-0.735,0.696c-0.217,0-0.473-0.05-0.785-0.152
				c-1.628-0.534-3.27-0.794-5.018-0.794c-0.056,0-0.111,0-0.167,0.001c0.417-0.112,0.85-0.244,1.292-0.379
				c1.047-0.32,2.129-0.65,3.014-0.702c0.193,0.06,0.389,0.09,0.58,0.09C203.633,82.664,203.833,82.631,204.03,82.565
				 M183.384,78.315c-2.192,0-4.382,2.281-4.403,2.677c-0.129,2.343-0.802,3.174-1.91,3.174c-0.705,0-1.585-0.335-2.613-0.833
				c-0.379-0.184-0.809-0.337-1.197-0.337c-0.568,0-1.047,0.33-1.139,1.383c-0.123,1.399,0.64,1.533,1.486,1.533
				c0.201,0,0.406-0.007,0.605-0.007c0.018,0,0.034,0,0.051,0c1.41,0.009,2.837,0.114,4.248,0.114c0.927,0,1.848-0.045,2.75-0.193
				c2.139-0.35,4.531-0.616,5.962-2.721c0.167-0.259,0.329-0.423,0.485-0.423c0.141,0,0.277,0.135,0.406,0.458
				c-0.303,1.466-0.189,2.887,1.15,2.887c0.273,0,0.598-0.06,0.98-0.189c2.826-0.959,5.617-1.684,8.467-1.684
				c1.597,0,3.212,0.228,4.861,0.769c0.264,0.086,0.605,0.177,0.941,0.177c0.542,0,1.069-0.236,1.228-1.106
				c0.269-1.469-0.515-1.924-1.8-1.929c-0.17,0.067-0.341,0.1-0.512,0.1c-0.17,0-0.34-0.032-0.511-0.094
				c-1.929,0.074-4.587,1.399-6.271,1.399c-0.656,0-1.164-0.202-1.423-0.757c-2.552-5.467-7.29-2.963-10.884-4.236
				C184.029,78.364,183.706,78.315,183.384,78.315L183.384,78.315z"/>
		</g>
		<g display="none">
			<path display="inline" fill-rule="evenodd" clip-rule="evenodd" fill="#FFFFFF" d="M162.267,248.386
				c-2.409,0-4.923-0.424-7.473-1.261c-0.329-0.108-0.714-0.505-1.12-0.925c-0.758-0.783-1.696-1.753-3.074-1.816
				c-0.229-0.462-0.761-0.662-1.236-0.842c-0.416-0.157-0.811-0.306-0.92-0.58c-0.074-0.184-0.03-0.449,0.131-0.789
				c0.28-0.591,0.74-0.832,1.588-0.832c0.246,0,0.497,0.019,0.745,0.036c0.255,0.019,0.507,0.036,0.747,0.036l1.396-0.008
				c3.449-0.016,7.016-0.031,10.485-0.886c0.241-0.06,0.556-0.128,0.843-0.128c0.471,0,0.727,0.171,0.83,0.554
				c0.076,0.279,0.062,0.49-0.043,0.626c-0.17,0.224-0.573,0.271-0.881,0.271c-0.075,0-0.151-0.003-0.229-0.008
				c-0.078-0.006-0.156-0.008-0.23-0.008c-1.535,0-2.176,1.074-2.739,2.021c-0.243,0.407-0.474,0.795-0.764,1.107
				c-0.024-0.009-0.049-0.014-0.075-0.015c-0.005,0-0.011,0-0.016,0c-0.205,0-0.352,0.021-0.5,0.047
				c-0.076,0.005-0.178,0.019-0.279,0.031c-0.139,0.019-0.278,0.038-0.416,0.038c-0.152,0-0.273-0.024-0.385-0.078
				c-0.035-0.017-0.071-0.024-0.107-0.024c-0.092,0-0.179,0.05-0.223,0.136c-0.063,0.12-0.017,0.269,0.102,0.333
				c0.197,0.108,0.409,0.16,0.65,0.16c0.201,0,0.402-0.037,0.604-0.076l0.144-0.027c0.02,0,0.066-0.002,0.112-0.002
				c0.124,0,0.225,0.016,0.317,0.05c0.028,0.01,0.057,0.015,0.086,0.015c0.012,0,0.024-0.001,0.037-0.003
				c0.369,0.164,0.777,0.243,1.242,0.243c0.619,0,1.258-0.142,1.877-0.279c0.596-0.132,1.211-0.269,1.78-0.269
				c1.01,0,1.728,0.433,2.326,1.402c0.046,0.073,0.204,0.163,0.29,0.163c0.156,0,0.296-0.098,0.457-0.21
				c0.127-0.089,0.302-0.21,0.408-0.21c0.084,0,0.153,0.154,0.188,0.247c0.065,0.179,0.074,0.313,0.027,0.41
				c-0.094,0.191-0.435,0.315-0.806,0.435C166.293,248.078,164.309,248.386,162.267,248.386z"/>
			<path display="inline" fill="#FB8C5A" d="M164.379,240.642c0.451,0,0.539,0.183,0.59,0.369c0.051,0.191,0.051,0.341-0.002,0.409
				c-0.063,0.083-0.275,0.172-0.682,0.172c-0.07,0-0.141-0.003-0.212-0.008c-0.085-0.006-0.167-0.008-0.247-0.008
				c-1.678,0-2.385,1.188-2.954,2.144c-0.211,0.354-0.413,0.693-0.648,0.971l-0.036-0.001c-0.174,0-0.337,0.023-0.475,0.048
				c-0.098,0.008-0.195,0.021-0.293,0.034c-0.128,0.017-0.256,0.035-0.383,0.035c-0.115,0-0.199-0.017-0.275-0.053
				c-0.07-0.034-0.145-0.05-0.217-0.05c-0.182,0-0.356,0.1-0.445,0.271c-0.123,0.241-0.033,0.536,0.204,0.667
				c0.234,0.128,0.486,0.19,0.771,0.19c0.232,0,0.455-0.043,0.652-0.081l0.115-0.021c0.031-0.002,0.062-0.003,0.093-0.003
				c0.093,0,0.167,0.011,0.232,0.034c0.053,0.02,0.107,0.029,0.162,0.03c0.388,0.161,0.811,0.24,1.288,0.24
				c0.646,0,1.299-0.145,1.931-0.285c0.608-0.135,1.185-0.263,1.727-0.263c0.926,0,1.558,0.384,2.113,1.283
				c0.108,0.177,0.298,0.282,0.503,0.282c0.234,0,0.42-0.13,0.6-0.255c0.053-0.036,0.137-0.095,0.198-0.132
				c0.007,0.015,0.013,0.03,0.021,0.05c0.048,0.131,0.045,0.198,0.036,0.215c-0.054,0.111-0.492,0.253-0.657,0.307
				c-1.847,0.599-3.805,0.901-5.821,0.901c-2.384,0-4.871-0.42-7.396-1.249c-0.27-0.088-0.633-0.463-1.018-0.86
				c-0.721-0.744-1.688-1.743-3.102-1.88c-0.295-0.459-0.844-0.666-1.3-0.839c-0.332-0.125-0.708-0.267-0.778-0.439
				c-0.044-0.11,0.002-0.325,0.127-0.589c0.237-0.502,0.606-0.688,1.361-0.688c0.24,0,0.484,0.019,0.728,0.035
				c0.259,0.02,0.516,0.037,0.808,0.037c0.002,0,0.004,0,0.006,0c0.449-0.004,0.898-0.006,1.349-0.008
				c3.464-0.016,7.046-0.031,10.544-0.894C163.823,240.706,164.118,240.642,164.379,240.642 M164.379,240.142
				c-0.311,0-0.636,0.069-0.902,0.135c-3.884,0.957-7.832,0.854-11.778,0.887c-0.015,0-0.029,0-0.044,0
				c-0.475,0-0.996-0.072-1.492-0.072c-0.742,0-1.429,0.163-1.813,0.975c-0.917,1.934,1.744,1.398,2.08,2.564
				c0.009,0,0.018,0,0.026,0c2.137,0,3.205,2.387,4.261,2.732c2.421,0.795,4.969,1.273,7.551,1.273c1.987,0,3.993-0.283,5.976-0.926
				c0.671-0.217,1.208-0.43,0.936-1.17c-0.113-0.308-0.263-0.41-0.422-0.41c-0.322,0-0.684,0.42-0.865,0.42
				c-0.031,0-0.058-0.014-0.077-0.045c-0.733-1.187-1.609-1.521-2.539-1.521c-1.192,0-2.474,0.548-3.657,0.548
				c-0.432,0-0.85-0.072-1.246-0.271c-0.012,0.01-0.021,0.021-0.033,0.03c-0.133-0.048-0.268-0.064-0.403-0.064
				c-0.052,0-0.104,0.002-0.157,0.006c-0.234,0.043-0.469,0.1-0.703,0.1c-0.178,0-0.354-0.032-0.529-0.129
				c0.16,0.077,0.326,0.103,0.492,0.103c0.245,0,0.494-0.054,0.74-0.073c0.137-0.024,0.273-0.044,0.41-0.044
				c0.018,0,0.034,0,0.052,0.001c0.044,0.025,0.087,0.049,0.132,0.071c1.141-1.075,1.377-3.186,3.455-3.186
				c0.069,0,0.141,0.002,0.215,0.007c0.082,0.006,0.163,0.009,0.244,0.009c0.76,0,1.422-0.264,1.166-1.212
				C165.294,240.302,164.853,240.142,164.379,240.142L164.379,240.142z M150.429,244.63c-0.039,0.001-0.079,0.002-0.118,0.004
				l0.147,0.15C150.453,244.73,150.443,244.679,150.429,244.63L150.429,244.63z"/>
		</g>
		<g display="none">
			<path display="inline" fill-rule="evenodd" clip-rule="evenodd" fill="#FFFFFF" d="M174.336,67.817
				c-3.393,0-5.072-0.895-7.815-2.833c1.366,0.356,2.853,0.524,4.569,0.524c1.67,0,3.376-0.161,5.026-0.316
				c1.639-0.154,3.333-0.313,4.979-0.313c2.654,0,4.821,0.429,6.75,1.345C181.227,67.22,177.161,67.817,174.336,67.817z"/>
			<path display="inline" fill="#FB8C5A" d="M181.096,65.129c2.256,0,4.154,0.314,5.848,0.977c-6.1,0.917-9.925,1.461-12.607,1.461
				c-2.893,0-4.459-0.625-6.637-2.074c1.04,0.179,2.158,0.265,3.391,0.265c1.682,0,3.394-0.161,5.05-0.317
				C177.774,65.287,179.461,65.129,181.096,65.129 M165.069,64.251c3.708,2.675,5.328,3.816,9.268,3.816
				c2.911,0,7.09-0.624,14.314-1.712c-2.445-1.347-4.982-1.726-7.555-1.726c-3.315,0-6.69,0.629-10.006,0.629
				C169.051,65.258,167.035,65.02,165.069,64.251L165.069,64.251z"/>
		</g>
		<g display="none">
			<path display="inline" fill-rule="evenodd" clip-rule="evenodd" fill="#FFFFFF" d="M172.677,72.589
				c-1.093,0-2.192-0.024-3.3-0.049c-1.127-0.025-2.262-0.05-3.406-0.05c-1.229,0-2.291,0.029-3.293,0.089
				c2.774-2.918,6.076-3.173,9.23-3.173c0.484,0,0.97,0.007,1.454,0.014c0.485,0.007,0.97,0.014,1.452,0.014
				c0.625,0,1.244-0.012,1.857-0.049c0.264-0.016,0.529-0.039,0.797-0.062c0.498-0.042,1.002-0.086,1.509-0.086
				c1.172,0,2.062,0.246,2.885,0.797l0.22,0.146c0.811,0.534,1.16,0.801,0.965,1.534c-0.115,0.434-0.242,0.587-0.315,0.587
				c-0.11,0-0.313-0.154-0.476-0.278c-0.257-0.195-0.548-0.417-0.872-0.417c-0.063,0-0.126,0.009-0.187,0.025
				C178.199,72.475,175.207,72.589,172.677,72.589z"/>
			<path display="inline" fill="#FB8C5A" d="M178.978,69.487c1.119,0,1.966,0.233,2.745,0.755l0.222,0.147
				c0.838,0.553,1.005,0.722,0.86,1.261c-0.051,0.192-0.098,0.303-0.131,0.365c-0.08-0.048-0.188-0.13-0.268-0.19
				c-0.287-0.219-0.614-0.468-1.022-0.468c-0.087,0-0.171,0.012-0.254,0.035c-2.97,0.835-5.938,0.947-8.453,0.947
				c-1.089,0-2.21-0.025-3.294-0.048c-1.113-0.025-2.265-0.05-3.412-0.05c-0.968,0-1.834,0.018-2.649,0.055
				c2.612-2.418,5.663-2.639,8.587-2.639c0.484,0,0.967,0.007,1.451,0.014c0.486,0.007,0.973,0.014,1.455,0.014
				c0.727,0,1.321-0.016,1.873-0.05c0.266-0.016,0.533-0.039,0.802-0.062C177.979,69.531,178.486,69.487,178.978,69.487
				 M178.978,68.987c-0.782,0-1.56,0.102-2.321,0.148c-0.607,0.038-1.223,0.049-1.842,0.049c-0.963,0-1.936-0.028-2.906-0.028
				c-3.506,0-6.97,0.363-9.83,3.714c1.311-0.099,2.607-0.131,3.893-0.131c2.269,0,4.502,0.099,6.706,0.099
				c2.905,0,5.763-0.171,8.589-0.966c0.039-0.011,0.078-0.016,0.118-0.016c0.464,0,0.944,0.694,1.348,0.694
				c0.212,0,0.401-0.191,0.557-0.772c0.272-1.024-0.408-1.362-1.286-1.952C181,69.156,179.985,68.987,178.978,68.987L178.978,68.987
				z"/>
		</g>
		<g>
			<path fill="none" d="M102.97,150.354c-0.048-0.031-0.094-0.068-0.137-0.11C102.877,150.285,102.922,150.323,102.97,150.354z"/>
			<path fill="none" d="M52.712,173.161l-0.023-0.25v0.25C52.697,173.161,52.704,173.161,52.712,173.161z"/>
			<path fill="none" d="M96.409,46.562c0.005,0.004,0.009,0.009,0.014,0.013c0.006-0.004,0.012-0.007,0.018-0.011
				C96.431,46.563,96.42,46.563,96.409,46.562z"/>
			<polygon fill="none" points="50.136,111.659 50.136,111.659 50.137,111.661 			"/>
			<polygon fill="none" points="48.942,223.642 48.924,223.392 48.924,223.642 			"/>
			<path fill="none" d="M87.635,146.957v-0.252l-0.016,0.252C87.625,146.957,87.629,146.957,87.635,146.957z"/>
			<path fill="none" d="M101.813,148.903c0.006,0.004,0.012,0.006,0.018,0.009C101.824,148.908,101.819,148.906,101.813,148.903z"/>
			<path fill="none" d="M102.702,150.096c0.011,0.014,0.021,0.027,0.031,0.041C102.723,150.123,102.713,150.11,102.702,150.096z"/>
			<path fill="none" d="M103.192,150.436c-0.041-0.008-0.082-0.016-0.12-0.031c0.02,0.008,0.037,0.02,0.058,0.025
				C103.15,150.432,103.171,150.434,103.192,150.436z"/>
			<path fill="none" d="M102.031,149.086c0.003,0.004,0.006,0.007,0.009,0.01C102.037,149.093,102.034,149.09,102.031,149.086z"/>
			<path fill="#FFFFFF" d="M45.469,214.911c-0.953,0-1.802-0.081-2.595-0.249c-0.037-0.008-0.07-0.012-0.102-0.012
				c-0.061,0-0.129,0.012-0.212,0.098c-0.258,0.268-0.392,0.944-0.404,1.534c0.025,0.001,0.056,0.002,0.09,0.002
				c1.159,0,4.1-0.877,4.746-1.193c0.258-0.126,0.515-0.226,0.771-0.3C47.004,214.859,46.234,214.911,45.469,214.911z"/>
			<path fill="#FFFFFF" d="M121.124,61.837c-0.156-0.145-0.289-0.284-0.375-0.401c-0.703-0.959-1.481-1.445-2.314-1.445
				c-1.256,0-2.334,1.078-2.635,1.409c-0.078,0.086-0.15,0.147-0.227,0.225C117.424,61.661,119.275,61.731,121.124,61.837z"/>
			<path fill="#FFFFFF" d="M112.157,61.587c-0.12-0.22-0.223-0.451-0.312-0.674c-0.277-0.693-0.594-0.751-0.896-0.751
				c-0.171,0-0.359,0.027-0.559,0.055c-0.22,0.032-0.446,0.064-0.679,0.064c-0.037,0-0.074-0.001-0.11-0.002l-0.074-0.002
				c-0.863,0-1.509,0.746-1.75,1.345C109.239,61.597,110.698,61.584,112.157,61.587z"/>
			<path fill="#FFFFFF" d="M126.803,62.294l0.899-0.277c0.394-0.121,0.771-0.389,1.171-0.673c0.067-0.048,0.135-0.096,0.201-0.143
				c-0.012-0.021-0.023-0.043-0.035-0.065c-0.153-0.283-0.313-0.577-0.482-0.673c-0.359-0.204-0.785-0.331-1.113-0.331
				c-0.469,0-0.543,0.236-0.578,0.35c-0.244,0.784-0.566,1.326-0.92,1.722C126.233,62.231,126.518,62.264,126.803,62.294z"/>
			<path fill="#FFFFFF" d="M96.567,236.917c-0.924,0-1.889,0.057-2.822,0.112c-0.962,0.057-1.958,0.115-2.941,0.115
				c-0.908,0-1.708-0.051-2.444-0.154c-0.094-0.014-0.179-0.02-0.258-0.02c-0.299,0-0.395,0.097-0.426,0.129
				c-0.206,0.209-0.222,0.748-0.216,1.136c0.001,0.078-0.016,0.155-0.05,0.226c-0.076,0.158-0.122,0.296-0.136,0.42
				c0.101,0.205,0.201,0.41,0.303,0.615c0.114,0.092,0.261,0.185,0.446,0.283c1.519-0.502,2.311-0.754,3.048-0.754
				c0.833,0,1.498,0.332,2.707,0.935c0.133,0.066,0.229,0.188,0.264,0.333s0.002,0.297-0.088,0.416
				c-0.668,0.884-1.53,1.004-2.286,1.004c-0.164,0-0.331-0.006-0.5-0.012c-0.162-0.006-0.325-0.011-0.49-0.011
				c-0.195,0-0.396,0.007-0.6,0.036c0.483,0.624,0.521,1.557,0.544,2.146c0.002,0.051,0.004,0.105,0.006,0.16
				c0.621-0.45,1.476-0.548,2.305-0.643c0.896-0.103,1.743-0.199,2.095-0.701c0.254-0.362,0.278-0.983,0.071-1.847
				c-0.104-0.43,0.226-0.891,0.328-1.021c0.35-0.444,0.835-0.698,1.331-0.698c0.238,0,0.476,0.058,0.704,0.172
				c0.432,0.217,0.864,0.322,1.321,0.322c0.793,0,1.564-0.321,2.311-0.631c0.458-0.191,0.927-0.386,1.401-0.503
				C100.573,237.122,98.447,236.917,96.567,236.917z"/>
			<path fill="#FFFFFF" d="M205.102,213.708c-0.061-0.063-0.185-0.148-0.579-0.148c-0.177,0-0.362,0.016-0.544,0.03
				c-0.207,0.017-0.412,0.032-0.605,0.032c-0.092,0-0.182-0.004-0.268-0.012c-1.365-0.131-2.729-0.357-4.049-0.577
				c-2.011-0.335-4.091-0.682-6.182-0.682c-0.191,0-0.383,0.003-0.574,0.009c-1.205,0.037-2.093,0.161-2.792,0.665
				c-0.265,0.19-0.187,0.886,0.163,1.459c0.477,0.777,1.137,0.937,1.982,0.937c0.263,0,0.531-0.016,0.801-0.03l0.069-0.004
				l3.538-0.201l7.756-0.441c0.01-0.001,0.02-0.001,0.029-0.001c0.191,0,0.365,0.109,0.449,0.282
				c0.126,0.116,0.441,0.319,0.656,0.319c0.233,0,0.29-0.563,0.302-0.735C205.285,214.167,205.231,213.847,205.102,213.708z"/>
			<path fill="#FFFFFF" d="M150.11,245.328c-0.875,0.075-1.76,0.077-2.618,0.078c-2.483,0.005-4.828,0.01-6.948,1.645
				c-0.131,0.103-0.293,0.156-0.465,0.156c-0.316,0-0.613-0.178-0.929-0.365c-0.272-0.162-0.582-0.346-0.803-0.346
				c-0.283,0-0.49,0.478-0.614,0.879c-0.065,0.213-0.141,0.412-0.211,0.601c-0.284,0.75-0.402,1.062,0.219,1.621
				c0.326,0.293,0.631,0.436,0.932,0.436c0.545,0,1.08-0.479,1.51-0.865c0.176-0.157,0.336-0.301,0.481-0.405
				c1.462-1.056,2.827-1.591,4.058-1.591c0.852,0,1.619,0.261,2.281,0.775c0.527,0.409,1.064,0.608,1.642,0.608
				c0.915,0,1.733-0.521,2.222-0.831c0.259-0.164,0.287-0.299,0.297-0.344c0.072-0.345-0.32-0.935-0.668-1.454
				C150.364,245.73,150.229,245.53,150.11,245.328z"/>
			<path fill="#FFFFFF" d="M82.773,138.855c0.557,0.165,0.813,0.63,1.018,1.004c0.258,0.469,0.428,0.779,1.056,0.792
				c3.183,0.067,6.408,0.315,9.528,0.555c1.218,0.094,2.437,0.188,3.655,0.271c0.033,0.003,0.065,0.003,0.097,0.003
				c0.28,0,0.481-0.041,0.51-0.582c0.019-0.347,0.046-0.872-0.111-1.038c-0.073-0.078-0.229-0.094-0.348-0.094l-0.142,0.001
				c-0.316,0-0.633-0.027-0.938-0.053c-0.301-0.026-0.584-0.05-0.862-0.05c-0.753,0-1.24,0.186-1.681,0.643
				c-0.483,0.501-1.051,0.755-1.686,0.755c-0.624,0-1.199-0.244-1.661-0.44c-0.253-0.107-0.539-0.229-0.673-0.229
				c-0.174,0.012-0.337,0.018-0.498,0.018c-2.224,0-4.004-1.108-5.726-2.18c-1.604-0.999-3.121-1.943-4.892-1.943
				c-0.322,0-0.65,0.032-0.978,0.096c-0.151,0.505-0.179,1.056-0.114,1.283c0.031-0.015,0.073-0.039,0.127-0.075
				c0.616-0.417,1.159-0.62,1.661-0.62c0.903,0,1.434,0.645,1.859,1.163C82.243,138.465,82.497,138.773,82.773,138.855z"/>
			<path fill="#FFFFFF" d="M179.237,240.613c-1.092,0-1.978,0.062-2.788,0.194c-0.569,0.094-1.132,0.288-1.727,0.493
				c-0.856,0.296-1.741,0.602-2.683,0.602c-1.018,0-1.939-0.359-2.822-1.1c-0.152-0.127-0.215-0.332-0.159-0.523
				c0.056-0.19,0.219-0.33,0.416-0.355l1.846-0.24c-0.575-0.136-1.093-0.222-1.577-0.222c-0.835,0-1.523,0.264-2.234,0.854
				c-0.195,0.162-0.305,0.276-0.365,0.35c0.072,0.038,0.163,0.078,0.232,0.109c0.451,0.202,1.289,0.579,1.192,1.546
				c-0.03,0.301-0.029,0.7,0.144,0.892c0.131,0.144,0.395,0.21,0.832,0.21c0.256,0,0.529-0.021,0.805-0.043
				c0.3-0.023,0.609-0.048,0.912-0.048c0.508,0,0.894,0.07,1.214,0.222c0.207,0.098,0.383,0.147,0.522,0.147
				c0.293,0,0.46-0.254,0.746-0.793c0.281-0.527,0.629-1.184,1.4-1.184c0.115,0,0.234,0.016,0.355,0.048
				c0.596,0.157,1.203,0.236,1.807,0.236c1.555,0,3.025-0.504,4.616-1.323c-0.146-0.005-0.292-0.011-0.438-0.016
				C180.744,240.641,179.98,240.613,179.237,240.613z"/>
			<path fill="#FFFFFF" d="M167.288,94.068c-0.588,0.019-1.519,0.2-1.965,1.094c0.378-0.101,0.755-0.208,1.126-0.313
				c1.565-0.443,3.184-0.901,4.775-0.901c1.783,0,3.314,0.583,4.682,1.781c0.102,0.048,0.402,0.161,0.643,0.161
				c0.105,0,0.141-0.022,0.141-0.022c0.018-0.027,0.054-0.199-0.054-0.586c-0.026-0.044-0.193-0.168-0.294-0.242
				c-0.282-0.21-0.67-0.498-0.667-0.97c0.003-0.496,0.456-0.824,0.604-0.932c0.28-0.204,0.625-0.312,0.994-0.312
				c0.59,0,1.189,0.266,1.689,0.749c0.821,0.792,1.729,1.145,2.944,1.145c0.579,0,1.246-0.081,2.057-0.252
				c-0.373-0.305-0.716-0.605-1.034-0.883c-0.85-0.743-1.582-1.385-2.093-1.385l-0.045,0.001c-2.021,0.156-4.065,0.529-6.043,0.89
				C172.33,93.529,169.828,93.985,167.288,94.068z"/>
			<path fill="#FFFFFF" d="M187.119,236.944c-0.711-0.536-3.387-0.926-6.362-0.926c-3.32,0-5.339,0.457-5.81,0.882
				c-0.339,0.306-0.533,0.646-0.547,0.96c-0.012,0.245,0.086,0.48,0.29,0.7c0.205,0.221,0.491,0.348,0.786,0.348
				c0.332,0,0.605-0.155,0.732-0.415c0.501-1.022,0.803-1.639,1.429-1.639c0.554,0,0.963,0.539,1.639,1.493
				c0.327,0.46,0.842,0.675,1.622,0.675c0.693,0,1.475-0.168,2.229-0.331c0.272-0.059,0.537-0.115,0.79-0.163
				c0.176-0.033,0.446-0.357,0.664-0.619c0.383-0.46,0.818-0.982,1.457-0.982c0.621,0,1.104,0.516,1.452,1.033
				c-0.035-0.135-0.052-0.264-0.067-0.379C187.387,237.289,187.365,237.129,187.119,236.944z"/>
			<path fill="#FFFFFF" d="M91.147,179.828c0.162,0.008,0.327,0.016,0.491,0.016c0.56,0,0.991-0.098,1.349-0.512
				c-0.364,0.008-0.762,0.076-1.147,0.142c-0.432,0.074-0.878,0.15-1.308,0.15c-1.008,0-1.709-0.447-2.129-1.362
				c-0.803,0.344-1.613,0.513-2.463,0.513c-0.687,0-1.428-0.107-2.303-0.334c0.202,0.373,0.416,0.831,0.405,1.273
				c0.729,0.281,1.325,0.645,1.341,1.238c0.014,0.494-0.396,0.845-0.89,1.106c0.76,0.786,1.757,1.094,2.969,1.469
				c0.871,0.269,1.821,0.563,2.803,1.082l-1.479-3.623c-0.074-0.18-0.036-0.387,0.097-0.529c0.532-0.571,1.212-0.646,1.744-0.646
				C90.797,179.812,90.971,179.821,91.147,179.828z"/>
			<path fill="#FFFFFF" d="M73.854,198.708c0.304,0.471,0.576,0.653,0.973,0.653c0.204,0,0.445-0.051,0.718-0.151
				c0.686-0.254,1.405-0.414,2.102-0.568c1.59-0.354,3.1-0.688,4.057-2.102c-1.281,0.471-2.605,0.91-4.003,0.91
				c-0.799,0-1.551-0.141-2.299-0.428c-0.396-0.152-0.849-0.315-1.204-0.315c-0.297,0-0.476,0.108-0.617,0.374
				C73.409,197.402,73.55,198.238,73.854,198.708z"/>
			<path fill="#FFFFFF" d="M84.705,197.239c0.702,0,1.44-0.412,2.223-0.849c0.699-0.391,1.417-0.792,2.18-0.93
				c-0.252-0.186-0.408-0.211-0.552-0.211c-0.122,0-0.268,0.022-0.437,0.047c-0.255,0.038-0.571,0.084-0.976,0.084
				c-0.118,0-0.245-0.004-0.38-0.013c-0.137-0.01-0.273-0.014-0.409-0.014c-1.191,0-2.313,0.337-3.468,0.751
				C83.665,197.118,84.295,197.239,84.705,197.239z"/>
			<path fill="#FFFFFF" d="M174.231,62.863c1.689,0,3.406-0.247,4.912-0.672c-0.145-0.051-0.27-0.145-0.359-0.275
				c-0.207-0.296-0.221-0.745-0.038-1.393c-0.038-0.012-0.075-0.025-0.113-0.037c-0.157-0.051-0.36-0.119-0.522-0.167
				c-0.512,0.863-1.107,1.284-1.814,1.284c-0.623,0-1.182-0.332-1.721-0.652c-0.43-0.255-0.834-0.496-1.184-0.516
				c-0.391-0.023-0.817-0.106-1.23-0.187c-0.484-0.095-0.986-0.192-1.42-0.192c-0.64,0-1.324,0.141-1.436,1.752
				C170.377,62.481,172.15,62.863,174.231,62.863z"/>
			<path fill="#FFFFFF" d="M180.262,61.827c0.922-0.341,1.723-0.754,2.334-1.218c-0.408-0.59-0.633-0.663-0.719-0.663
				c-0.107,0-0.424,0.111-1.023,1.14C180.706,61.339,180.5,61.612,180.262,61.827z"/>
			<path fill="#FFFFFF" d="M182.803,191.284c-0.353,0.346-0.806,0.579-1.225,0.794c-0.788,0.404-1.269,0.685-1.338,1.31
				c1.084-0.198,2.461-0.306,3.955-0.306c2.239,0,5.104,0.261,6.424,0.993c0.909,0.505,1.791,0.957,2.592,0.957
				c0.337,0,0.65-0.08,0.952-0.246c-0.298-0.074-0.552-0.203-0.702-0.458c-1.23-2.101-2.758-3.121-4.667-3.121
				c-0.952,0-2.038,0.255-3.229,0.759c-0.327,0.137-0.657,0.206-0.98,0.206C183.881,192.172,183.26,191.857,182.803,191.284z"/>
			<path fill="#FFFFFF" d="M80.698,86.327c-0.921-0.168-1.791-0.328-2.063-0.985c-0.084-0.205-0.094-0.424-0.029-0.655
				c-0.18-0.038-0.409-0.071-0.649-0.071c-0.38,0-0.593,0.083-0.665,0.16c-0.055,0.059-0.124,0.161-0.081,0.354
				c0.064,0.291,0.343,0.602,0.646,0.724c1.23,0.494,1.821,1.058,1.808,1.723c-0.019,0.946-1.287,1.396-1.703,1.544
				c-0.202,0.072-0.329,0.132-0.407,0.176c0.045,0.046,0.098,0.096,0.14,0.136c0.11,0.104,0.235,0.223,0.339,0.356
				c0.64,0.823,2.114,1.334,3.848,1.334c1.394,0,2.729-0.326,3.79-0.902c-1.747-0.146-3.343-0.657-5.052-1.604
				c-0.151-0.083-0.248-0.239-0.258-0.411c-0.009-0.172,0.071-0.336,0.212-0.436c0.972-0.684,1.218-1.023,1.28-1.147
				C81.655,86.501,81.065,86.393,80.698,86.327z"/>
			<path fill="#FFFFFF" d="M55.142,225.787c0.194,0.063,0.391,0.094,0.601,0.094c0.517,0,1.042-0.187,1.598-0.385
				c0.624-0.223,1.27-0.452,1.984-0.452c0.635,0,1.222,0.182,1.796,0.556c0.369,0.24,0.935,0.378,1.55,0.378
				c0.829,0,1.643-0.249,2.231-0.684c0.103-0.136,0.169-0.797,0.076-0.975c-0.308-0.354-0.688-0.508-1.298-0.508
				c-0.261,0-0.534,0.027-0.823,0.056c-0.303,0.03-0.615,0.062-0.93,0.062c-0.188,0-0.359-0.012-0.521-0.034
				c-0.18-0.024-0.376-0.036-0.617-0.036c-0.193,0-0.388,0.007-0.581,0.015c-0.197,0.007-0.394,0.014-0.59,0.015
				c-0.465,0-0.93,0.007-1.394,0.013c-0.469,0.007-0.938,0.014-1.406,0.014c-0.727,0-1.324-0.017-1.88-0.051
				c-0.047-0.003-0.094-0.004-0.14-0.004c-0.874,0-1.529,0.457-1.545,0.765c-0.026,0.519,0.307,0.699,1.393,1.014
				C54.812,225.686,54.979,225.735,55.142,225.787z"/>
			<path fill="#FFFFFF" d="M56.577,54.485c1.621,0.302,3.297,0.615,4.908,0.615c1.895,0,3.483-0.43,4.94-1.346
				c-0.113-0.073-0.225-0.146-0.334-0.219c-0.521-0.344-1.059-0.7-1.434-0.7c-0.021,0-0.042,0.001-0.063,0.003
				c-3.171,0.374-6.383,0.88-9.502,1.379C55.592,54.302,56.087,54.394,56.577,54.485z"/>
			<path fill="#FFFFFF" d="M83.947,61.569c-0.214-1.374-0.684-1.374-0.884-1.374c-0.394,0-0.931,0.228-1.449,0.449
				c-0.383,0.163-0.778,0.331-1.167,0.434c-0.492,0.13-1.031,0.193-1.649,0.193c-0.527,0-1.098-0.045-1.796-0.143
				c-0.168-0.023-0.327-0.035-0.472-0.035c-1.071,0-1.361,0.624-1.593,1.67c0.317,0.185,0.691,0.269,1.174,0.269
				c0.35,0,0.711-0.042,1.094-0.086c0.392-0.045,0.796-0.092,1.197-0.092c0.693,0,1.681,0.125,2.474,1.143
				c1.108-0.13,2.326-0.294,2.832-0.959C83.968,62.693,84.046,62.213,83.947,61.569z"/>
			<path fill="#FFFFFF" d="M59.711,169.595c-0.869,0-1.716-0.246-2.589-0.751c-0.388-0.224-0.848-0.348-1.293-0.348
				c-0.485,0-1.601,0.162-1.925,1.598c0.188,0.11,0.424,0.162,0.722,0.162c0.416,0,0.904-0.103,1.375-0.202
				c0.502-0.105,1.02-0.215,1.504-0.215c0.611,0.001,1.082,0.175,1.439,0.533c0.433,0.434,0.666,1.101,0.722,2.077
				c2.185-0.064,3.736-0.14,4.048-0.599c0.276-0.407-0.109-1.581-0.701-3.221C61.938,169.141,60.904,169.595,59.711,169.595z"/>
			<path fill="#FFFFFF" d="M68.552,235.777c0.266-0.174,0.608-0.444,0.666-0.579c0.045-0.253,0.007-0.465-0.125-0.625
				c-0.185-0.225-0.565-0.362-1.021-0.368c-2.275-0.027-4.538-0.031-6.255-0.031c-1.116,0-2.269,0.002-3.476,0.004
				c-0.942,0.001-1.918,0.003-2.935,0.004c1.726,1.472,2.89,1.716,4.182,1.858c0.114,0.013,0.228,0.019,0.341,0.019
				c0.874,0,1.765-0.341,2.708-0.701c0.985-0.377,2.005-0.767,3.063-0.766C66.754,234.591,67.69,234.98,68.552,235.777z"/>
			<path fill="#FFFFFF" d="M73.43,192.948c0.666-0.144,1.343-0.289,2.024-0.413c-1.1-0.271-2.299-0.399-3.661-0.399
				c-1.297,0-2.629,0.114-3.916,0.225c-1.303,0.111-2.649,0.228-3.976,0.228c-0.026,0-0.052,0-0.077,0
				c1.342,0.748,2.786,1.103,4.441,1.103C69.968,193.691,71.728,193.313,73.43,192.948z"/>
			<path fill="#FFFFFF" d="M188.047,108.487c-1.246-0.367-2.424-0.714-3.65-0.714c-0.346,0-0.686,0.029-1.012,0.086
				c-1.729,0.3-2.285,0.636-2.2,1.332c0.006,0.049,0.013,0.09,0.019,0.125c0.079-0.047,0.176-0.109,0.25-0.158
				c0.326-0.211,0.696-0.451,1.114-0.451c0,0,0,0,0.001,0c0.26,0,0.631,0.096,0.914,0.549c0.143,0.227,0.46,0.335,0.828,0.46
				c0.458,0.156,1.053,0.358,1.391,0.915c0.699-0.183,1.414-0.313,2.109-0.438c1.271-0.23,2.494-0.452,3.625-0.967
				C190.258,109.138,189.137,108.807,188.047,108.487z"/>
			<path fill="#FFFFFF" d="M158.688,206.066c1.619-0.216,3.183-0.424,4.645-0.962c-0.424-0.061-0.846-0.151-1.26-0.24
				c-0.697-0.15-1.356-0.293-1.984-0.293c-1.01,0-1.742,0.388-2.375,1.258c-0.199,0.273-0.445,0.314-0.573,0.314
				c-0.743,0-0.951-1.123-0.997-1.468c-0.03-0.222-0.066-0.35-0.094-0.42c-0.117,0.056-0.296,0.175-0.424,0.261
				c-0.385,0.258-0.863,0.578-1.395,0.578c-0.127,0-0.25-0.018-0.367-0.052c-0.018,0.558-0.128,1.231-0.571,1.691
				c-0.153,0.158-0.331,0.278-0.534,0.361c0.124,0.086,0.262,0.105,0.4,0.105c0.313,0,0.679-0.124,0.945-0.215l0.135-0.046
				C155.692,206.465,157.215,206.262,158.688,206.066z"/>
			<path fill="#FFFFFF" d="M70.026,156.35c0.335,0.137,0.679,0.34,1.042,0.556c0.563,0.333,1.203,0.712,1.664,0.712
				c0.204,0,0.445-0.063,0.684-0.535c0.628-1.244,1.424-1.824,2.502-1.824c0.468,0,0.923,0.109,1.364,0.215
				c0.177,0.043,0.349,0.084,0.517,0.117c-0.597-0.216-1.058-0.932-1.541-1.684c-0.27-0.418-0.83-1.289-1.068-1.289
				c-0.004,0-0.446,0.064-1.065,2.374c-0.04,0.151-0.15,0.276-0.297,0.335c-0.06,0.023-0.123,0.035-0.186,0.035
				c-0.091,0-0.181-0.023-0.26-0.072c-0.114-0.069-0.232-0.135-0.35-0.201c-0.282-0.157-0.573-0.32-0.842-0.539
				c-0.304-0.248-0.587-0.363-0.892-0.363c-0.41,0-0.841,0.209-1.297,0.43c-0.252,0.121-0.508,0.245-0.775,0.343
				c0.038,0.087,0.075,0.174,0.112,0.261C69.534,155.678,69.779,156.248,70.026,156.35z"/>
			<path fill="#FFFFFF" d="M96.284,206.704c1.94,0,3.533-0.527,4.458-1.443c-0.986-0.053-1.955-0.185-2.899-0.313
				c-1.179-0.16-2.292-0.313-3.395-0.313c-1.392,0-2.563,0.259-3.621,0.805C92.555,206.259,94.462,206.704,96.284,206.704z"/>
			<path fill="#FFFFFF" d="M174.967,77.369c0.161-0.036,0.463-0.206,0.689-0.333c0.458-0.258,0.978-0.551,1.496-0.551
				c0.297,0,0.689,0.095,1.001,0.507c0.093,0,0.186,0.001,0.28,0.002c0.202,0.002,0.41,0.004,0.621,0.004
				c2.563,0,3.525-0.449,3.548-1.655c0.019-0.966-0.159-1.196-0.194-1.233c-0.012-0.011-0.022-0.023-0.078-0.023
				c-0.25,0-0.701,0.243-1.1,0.457c-0.562,0.301-1.142,0.613-1.699,0.613c-0.171,0-0.332-0.029-0.479-0.088
				c-0.156-0.061-0.284-0.152-0.386-0.226c-0.033-0.023-0.064-0.046-0.098-0.067c-0.605-0.396-1.158-0.598-1.646-0.598
				c-0.447,0-0.845,0.172-1.182,0.512c-0.584,0.588-0.844,1.513-0.84,2.124C174.904,77.142,174.942,77.3,174.967,77.369z"/>
			<path fill="#FFFFFF" d="M74.712,183.146c0.646-0.036,1.232-0.069,1.766-0.455c-0.43,0.02-0.853,0.049-1.268,0.076
				c-0.733,0.049-1.426,0.096-2.103,0.096c-1.011,0-1.812-0.108-2.521-0.342c-0.34-0.11-0.634-0.167-0.874-0.167
				c-0.658,0-0.845,0.399-1.143,1.379c-0.183,0.602-0.398,1.313-0.96,1.685c0.279,0.362,0.638,0.665,1.05,0.665
				c0.304,0,0.636-0.162,0.989-0.482c0.176-0.16,0.396-0.245,0.633-0.245l0,0c0.448,0,0.866,0.295,1.245,0.609
				c0-0.002-0.001-0.003-0.001-0.005c-0.252-1.017-0.263-1.474-0.043-1.809c0.208-0.317,0.54-0.374,0.806-0.42
				c0.194-0.033,0.395-0.067,0.614-0.189C73.49,183.213,74.112,183.179,74.712,183.146z"/>
			<path fill="#FFFFFF" d="M105.414,192.927c0.619,0.027,1.259,0.057,1.896,0.057c0.811,0,1.516-0.048,2.168-0.148
				c-0.078-0.155-0.152-0.31-0.222-0.454c-0.184-0.382-0.489-1.021-0.655-1.072c-0.441-0.102-0.894-0.15-1.383-0.15
				c-1.156,0-2.293,0.275-3.496,0.567c-1.226,0.297-2.493,0.604-3.807,0.604c-0.385,0-0.764-0.027-1.125-0.08
				c0,0-0.013-0.001-0.026-0.002c-0.022,0.126,0.02,0.429,0.151,0.634c0.162,0.255,0.544,0.562,0.725,0.643
				c1.423-0.577,2.841-0.652,3.923-0.652C104.177,192.872,104.806,192.9,105.414,192.927z"/>
			<path fill="#FFFFFF" d="M197.194,189.286c0.246,0.669,0.539,0.726,0.795,0.726c0.262,0,0.574-0.084,0.904-0.173
				c0.383-0.103,0.779-0.209,1.182-0.209c0.102,0,0.201,0.007,0.297,0.021c0.034-0.098,0.082-0.188,0.141-0.27
				c0.303-0.42,0.803-0.498,1.242-0.567c0.696-0.108,0.751-0.178,0.746-0.517c-0.016-1.06-0.418-1.115-1.404-1.149
				c-0.492-0.017-1-0.034-1.43-0.284c-0.654-0.383-1.43-0.576-2.305-0.576c-0.643,0-1.345,0.107-2.068,0.314
				C196.161,187.291,196.786,188.177,197.194,189.286z"/>
			<path fill="#FFFFFF" d="M82.746,84.576c1.63,2.017,2.774,2.786,4.067,2.786c0.932,0,2.048-0.396,3.636-1.306
				c-1.993-0.798-4.291-1.513-6.77-1.513C83.369,84.543,83.058,84.554,82.746,84.576z"/>
			<path fill="#FFFFFF" d="M99.132,46.643c-0.353-0.036-0.687-0.07-1.01-0.07c-0.453,0-0.811,0.071-1.116,0.225
				c0.004,0.383-0.191,0.821-0.384,1.251c-0.105,0.237-0.292,0.655-0.316,0.855c0.023,0.003,0.056,0.005,0.096,0.005
				c0.219,0,0.665-0.064,1.543-0.368c0.505-0.175,1.611-0.364,2.517-0.364c0.635,0,1.089,0.088,1.39,0.269
				c0.467,0.281,0.925,0.424,1.36,0.424c1.097,0,1.702-0.871,1.72-1.337c0.008-0.199-0.063-0.368-0.221-0.532
				c-0.431-0.447-1.441-0.748-2.515-0.748c-0.052,0-0.103,0-0.153,0.002c-0.653,0.411-1.324,0.464-1.798,0.464
				C99.869,46.719,99.494,46.68,99.132,46.643z"/>
			<path fill="#FFFFFF" d="M192.784,162.89c0.149-0.063,0.3-0.131,0.446-0.197c0.585-0.265,1.189-0.538,1.814-0.538
				c0.053,0,0.105,0.002,0.158,0.007c0.126,0.009,0.244,0.014,0.356,0.014c0.536,0,0.905-0.111,1.097-0.331
				c0.239-0.272,0.303-0.799,0.195-1.611c-0.128-0.967-0.477-0.967-0.756-0.967c-0.207,0-0.445,0.04-0.699,0.082
				c-0.281,0.047-0.572,0.095-0.861,0.095c-0.248,0-0.465-0.035-0.658-0.108c-0.105-0.04-0.18-0.061-0.232-0.071
				c-0.006,0.119,0.006,0.299,0.014,0.419c0.03,0.461,0.065,0.984-0.275,1.348c-0.129,0.139-0.369,0.304-0.771,0.304
				c-0.159,0-0.331-0.024-0.526-0.074c-0.25-0.064-0.524-0.099-0.793-0.099c-0.641,0-1.183,0.187-1.451,0.498
				c-0.179,0.206-0.241,0.47-0.191,0.807c0.004,0.028,0.01,0.046,0.013,0.058c0.002-0.001,0.004-0.001,0.007-0.001
				c0.014,0,0.044,0.004,0.09,0.004c0.164,0,0.393-0.045,0.635-0.092c0.313-0.061,0.668-0.13,1.021-0.13
				C192.004,162.304,192.462,162.501,192.784,162.89z"/>
			<path fill="#FFFFFF" d="M180.85,58.573c0.834,0,1.395-0.356,1.767-1.122c0.565-1.163,1.313-2.147,2.036-3.1
				c0.211-0.278,0.424-0.56,0.635-0.847c-0.933,0.462-1.825,1.004-2.751,1.565c-1.495,0.907-3.033,1.84-4.837,2.476
				C178.999,58.236,180.035,58.573,180.85,58.573z"/>
			<path fill="#FFFFFF" d="M190.446,204.272c-2.057,0-4.023,0.847-5.637,1.741c0.383-0.046,0.789-0.275,1.15-0.48
				c0.408-0.23,0.761-0.429,1.133-0.429c0.286,0,0.533,0.119,0.713,0.346c0.811,1.02,1.58,1.515,2.354,1.515
				c0.788,0,1.574-0.483,2.406-0.996c0.482-0.297,0.974-0.6,1.491-0.824C192.862,204.559,191.67,204.272,190.446,204.272z"/>
			<path fill="#FFFFFF" d="M125.149,238.543c0.791,0.079,1.609,0.161,2.392,0.161c1.698,0,2.961-0.395,4.056-1.295
				c-1.119-0.153-2.274-0.311-3.37-0.311c-1.776,0-3.155,0.417-4.335,1.33C124.314,238.46,124.735,238.502,125.149,238.543z"/>
			<path fill="#FFFFFF" d="M65.514,168.767c0.714,0.625,1.452,1.271,2.104,1.271c0.642,0,1.315-0.679,2.001-2.017
				c0.087-0.172,0.262-0.272,0.444-0.272c0.037,0,0.073,0.012,0.11,0.021c0.027-0.347-0.192-0.541-1.027-1.021
				c-0.08,0.007-0.156,0.008-0.241,0.021c-0.1,0.674-0.347,1.651-1.168,1.651c-0.476,0-0.884-0.367-1.279-0.723
				c-0.172-0.154-0.451-0.405-0.589-0.457c-0.074,0.039-0.154,0.059-0.235,0.059c-0.117,0-0.234-0.041-0.328-0.122
				c-0.172-0.149-0.222-0.396-0.119-0.601c0.166-0.335,0.228-0.601,0.172-0.747c-0.073-0.195-0.435-0.342-0.783-0.483
				c-0.368-0.149-0.798-0.323-1.089-0.643c-0.103,0.083-0.186,0.176-0.219,0.274c-0.082,0.248,0.125,0.643,0.324,1.024
				c0.249,0.476,0.545,1.041,0.438,1.622C64.548,167.921,65.037,168.349,65.514,168.767z"/>
			
				<line fill="none" stroke="#FB8C5A" stroke-width="0" stroke-linecap="round" stroke-linejoin="round" x1="63.257" y1="167.825" x2="63.257" y2="167.825"/>
			<path fill="#FFFFFF" d="M181.453,169.025c0.172-0.047,0.349-0.096,0.525-0.096c0.287,0,0.461,0.126,0.556,0.232
				c0.835,0.936,1.765,1.371,2.926,1.371c0.8,0,1.638-0.2,2.513-0.46c-0.689-0.28-1.322-0.664-1.945-1.042
				c-1.088-0.66-2.115-1.283-3.339-1.283c-0.104,0-0.21,0.005-0.317,0.014c-0.12,0.011-0.24,0.018-0.359,0.024
				c-0.797,0.045-1.012,0.057-1.015,0.86c-0.001,0.376,0.071,0.47,0.071,0.471C181.172,169.102,181.322,169.061,181.453,169.025z"/>
			<path fill="#FFFFFF" d="M84.303,114.381c0.161,0,0.322,0.004,0.483,0.009c0.152,0.004,0.303,0.008,0.453,0.008
				c0.259,0,0.594-0.011,0.89-0.101c0.329-0.1,0.659-0.436,0.979-0.761c0.095-0.096,0.188-0.191,0.281-0.281
				c-0.01-0.066-0.018-0.131-0.025-0.193c-0.009-0.072-0.02-0.162-0.031-0.224c-0.457-0.265-0.921-0.394-1.416-0.394
				c-0.818,0-1.634,0.343-2.496,0.707c-0.93,0.391-1.89,0.796-2.938,0.796c-0.252,0-0.501-0.024-0.744-0.072
				c-0.181,0.104-0.543,0.441-0.624,0.733c-0.03,0.107-0.002,0.142,0.017,0.165c0.498,0.613,0.933,0.684,1.216,0.684
				c0.485,0,1.02-0.235,1.585-0.484c0.491-0.216,0.999-0.439,1.529-0.53C83.704,114.401,83.972,114.381,84.303,114.381z"/>
			<path fill="#FFFFFF" d="M195.836,94.275c-0.03-0.259-0.113-0.39-0.487-0.39c-0.099,0-0.198,0.011-0.294,0.026
				c-0.486,0.077-0.979,0.115-1.506,0.115c-1.412,0-2.815-0.281-4.172-0.553c-1.064-0.213-2.156-0.432-3.27-0.521
				c0.051,0.148,0.098,0.296,0.146,0.443c0.123,0.379,0.303,0.935,0.428,1.127c2.463,0.231,4.996,0.257,7.445,0.282l1.108,0.012
				c0.001,0,0.001,0,0.001,0c0.254,0,0.438-0.057,0.525-0.155C195.832,94.583,195.858,94.453,195.836,94.275z"/>
			<path fill="#FFFFFF" d="M187.928,198.583c0.117,0.069,0.35,0.139,0.605,0.139c0.251,0,0.576-0.064,0.699-0.37
				c0.129-0.318,0.154-0.49,0.156-0.57c-0.02-0.002-0.045-0.003-0.078-0.003c-0.156,0-0.358,0.033-0.555,0.066
				c-0.215,0.036-0.418,0.07-0.605,0.07c-0.192,0-0.35-0.037-0.479-0.114c-1.432-0.839-2.906-1.247-4.508-1.247
				c-1.438,0-2.975,0.32-4.74,0.997c0.195,0.005,0.397,0.008,0.605,0.008c0.691,0,1.374-0.028,2.033-0.055
				c0.654-0.026,1.271-0.052,1.891-0.052C184.457,197.452,186.223,197.587,187.928,198.583z"/>
			<path fill="#FFFFFF" d="M59.748,67.951c-0.327,0-0.659,0.074-1.008,0.225c0.939,1.479,2.339,2.396,3.813,3.362
				c0.667,0.437,1.351,0.885,1.994,1.394l0.249-0.998l0.25-1c0.028-0.114,0.094-0.21,0.183-0.277
				c-1.124-0.098-2.022-0.781-2.893-1.444C61.484,68.563,60.679,67.951,59.748,67.951z"/>
			<path fill="#FFFFFF" d="M52.689,173.411c-0.437,0-0.576,0.101-0.616,0.144c-0.048,0.052-0.066,0.146-0.055,0.283
				c0.058,0.711,0.16,1.131,0.306,1.247c0.326,0.26,0.823,0.396,1.44,0.396c1.596,0,3.469-0.867,4.361-1.923l-0.277-0.009
				c-1.677-0.055-3.41-0.112-5.113-0.139l-0.022-0.25c-0.008,0-0.016,0-0.023,0V173.411z"/>
			<path fill="#FFFFFF" d="M89.469,154.715c-0.353,0-0.707-0.008-1.065-0.014c-0.358-0.008-0.721-0.015-1.087-0.015
				c-0.415,0-0.87,0.008-1.352,0.044c2.49,1.192,4.068,1.89,4.938,1.89c0.736,0,1.035-0.558,1.549-2.229
				C91.433,154.668,90.424,154.715,89.469,154.715z"/>
			<path fill="#FFFFFF" d="M67.641,95.087c-0.275,0-0.619,0.065-0.983,0.135c-0.437,0.083-0.888,0.168-1.336,0.168
				c-0.955,0-1.62-0.417-1.984-1.243c-0.434,0.296-1.039,0.86-1.043,1.39c-0.003,0.515,0.079,0.883,0.232,1.038
				c0.062,0.061,0.169,0.131,0.468,0.131c0.207,0,0.443-0.033,0.694-0.068c0.276-0.039,0.563-0.08,0.844-0.08
				c0.282,0,0.525,0.042,0.737,0.127c0.344-0.061,0.715-0.067,1.044-0.067l0.205,0l0.201,0c0.548,0,1.149-0.021,1.368-0.266
				c0.119-0.133,0.159-0.376,0.119-0.723C68.151,95.14,67.983,95.087,67.641,95.087z"/>
			<path fill="#FFFFFF" d="M112.069,44.174c0.268,0.014,0.539,0.037,0.813,0.059c0.435,0.036,0.884,0.073,1.316,0.073
				c1.257,0,2.549-0.296,3.626-2.187c-0.642,0.212-1.243,0.251-1.749,0.251c-0.375,0-0.737-0.024-1.088-0.048
				c-0.318-0.021-0.629-0.042-0.931-0.042c-0.944,0-1.652,0.204-2.265,1.217c-0.068,0.114-0.056,0.32,0.029,0.481
				C111.858,44.048,111.94,44.167,112.069,44.174z"/>
			<path fill="#FFFFFF" d="M44.394,114.881c0.178,0,0.363-0.007,0.552-0.015c0.209-0.008,0.421-0.016,0.633-0.016
				c0.354,0,0.643,0.022,0.905,0.071c0.407,0.075,0.772,0.113,1.086,0.113c1.455,0,1.623-0.724,1.836-2.229
				c0.001-0.007,0.002-0.015,0.004-0.022c-0.063,0.039-0.124,0.079-0.185,0.118c-0.904,0.578-1.839,1.176-2.754,1.176
				c-0.108,0-0.216-0.008-0.321-0.025c-0.282-0.046-0.597-0.115-0.918-0.185c-0.569-0.125-1.157-0.254-1.59-0.254
				c-0.404,0-0.408,0.088-0.411,0.167c-0.016,0.429,0.051,0.724,0.198,0.877C43.578,114.811,43.876,114.881,44.394,114.881z"/>
			<path fill="#FFFFFF" d="M189.393,145.641c-0.123,0.234-0.047,0.724,0.096,0.973c0.366,0.636,0.643,0.636,0.747,0.636
				c0.288,0,0.667-0.214,1.032-0.419c0.488-0.275,0.992-0.559,1.559-0.559c0.264,0,0.515,0.063,0.747,0.188
				c0.107,0.059,0.192,0.131,0.266,0.202c0.107-0.021,0.222-0.031,0.343-0.031c0.241,0,0.475,0.04,0.699,0.078
				c0.191,0.032,0.371,0.063,0.523,0.063c0.195,0,0.345-0.025,0.484-0.363c0.043-0.146-0.07-0.63-0.181-0.883
				c-1.146-0.063-2.356-0.119-3.564-0.119c-0.913,0-1.733,0.032-2.509,0.099C189.469,145.52,189.422,145.582,189.393,145.641z"/>
			<path fill="#FFFFFF" d="M73.393,50.412c0.175,0.204,0.435,0.448,0.677,0.448c0.355,0,0.816-0.572,1.146-1.424
				c0.214-0.552,0.243-0.932-1.148-1.555c-0.319-0.143-0.619-0.212-0.916-0.212c-0.736,0-1.374,0.436-2.049,0.897
				c-0.197,0.135-0.397,0.272-0.602,0.399C71.5,49.115,72.507,49.381,73.393,50.412z"/>
			<path fill="#FFFFFF" d="M95.727,122.07c-0.461,0.037-0.928,0.132-1.382,0.226c-0.594,0.123-1.208,0.249-1.824,0.249
				c-0.184,0-0.362-0.011-0.532-0.034c-0.286-0.038-0.553-0.105-0.787-0.165c-0.272-0.069-0.508-0.129-0.705-0.129
				c-0.181,0-0.396,0.036-0.67,0.467c-0.011,0.018-0.021,0.034-0.029,0.048c0.009,0.002,0.017,0.004,0.024,0.005
				c0.235,0.05,0.558,0.118,0.749,0.393c0.106,0.153,0.201,0.302,0.291,0.444c0.397,0.626,0.559,0.843,1.035,0.843
				c0.261,0,0.607-0.073,1.029-0.218c0.692-0.239,1.22-0.732,1.777-1.255C95.03,122.639,95.36,122.33,95.727,122.07z"/>
			<path fill="#FFFFFF" d="M155.932,75.195c-0.424,0.059-0.845,0.164-1.245,0.352c-0.197,0.093-0.415,0.138-0.665,0.138
				c-0.232,0-0.454-0.039-0.668-0.076c-0.179-0.031-0.347-0.06-0.488-0.06c-0.16,0-0.343,0-0.508,0.463
				c-0.065,0.185-0.027,0.292,0.008,0.357c0.104,0.196,0.359,0.315,0.422,0.332c0.383,0.061,0.814,0.088,1.385,0.088
				c0.272,0,0.546-0.006,0.819-0.012c0.116-0.003,0.233-0.005,0.351-0.007C155.389,76.087,155.586,75.559,155.932,75.195z"/>
			<path fill="#FFFFFF" d="M159.636,75.42c0.253,0.236,0.474,0.361,0.64,0.361c0.217,0,0.453-0.227,0.705-0.468
				c0.274-0.263,0.58-0.555,0.979-0.658c0.007-0.072,0.007-0.142,0.002-0.203c-0.914,0.504-1.864,0.648-2.781,0.682
				C159.406,75.25,159.569,75.358,159.636,75.42z"/>
			<path fill="#FFFFFF" d="M89.169,80.443c-1.253,0-2.185,0.536-3.021,1.739c-0.113,0.163-0.297,0.257-0.502,0.257
				c-0.209,0-0.397-0.094-0.598-0.193c-0.063-0.031-0.159-0.079-0.239-0.111c-0.008,0.049-0.013,0.116-0.014,0.206
				c-0.001,0.056,0.008,0.085,0.011,0.091c0.049,0.044,0.298,0.078,0.446,0.099c0.181,0.025,0.387,0.054,0.581,0.12
				c0.325,0.111,0.637,0.166,0.951,0.166c1.01,0,1.889-0.578,2.818-1.189c0.479-0.316,0.967-0.636,1.486-0.887
				C90.426,80.57,89.786,80.443,89.169,80.443z"/>
			<path fill="#FFFFFF" d="M132.928,249.472c0.329,0,0.836-0.479,1.326-0.944c0.075-0.072,0.152-0.145,0.229-0.217
				c-0.685-0.321-1.11-0.919-1.474-1.43c-0.34-0.477-0.633-0.889-1.033-0.957c-0.045-0.008-0.094-0.011-0.146-0.011
				c-0.506,0-1.275,0.263-1.688,0.702c-0.207,0.221-0.299,0.455-0.281,0.719C129.99,249.29,132.438,249.458,132.928,249.472z"/>
			<path fill="#FFFFFF" d="M169.326,76.95c0.033,0,0.068-0.001,0.104-0.004c2.08-0.157,3.582-0.445,3.656-2.588
				c-0.352-0.008-0.707-0.045-1.052-0.081c-0.384-0.04-0.747-0.078-1.094-0.078c-1.003,0-1.696,0.301-2.054,1.801
				c-0.084,0.352-0.064,0.674,0.051,0.819C168.963,76.852,169.04,76.95,169.326,76.95z"/>
			<path fill="#FFFFFF" d="M70.701,206.19c0.087-0.063,0.19-0.097,0.296-0.097c0.038,0,0.076,0.004,0.113,0.013
				c0.132,0.031,0.231,0.039,0.33,0.046c0.076-0.075,0.152-0.15,0.229-0.227c-0.005-0.027-0.004-0.04-0.013-0.075
				c-1.045-0.571-2.041-0.85-3.039-0.85c-1.041,0.001-2.069,0.304-3.127,0.926c1.145,0.745,2.073,1.083,2.95,1.083
				C69.209,207.009,69.948,206.74,70.701,206.19z"/>
			<path fill="#FFFFFF" d="M147.143,62.956c0.729-0.017,1.232-0.194,1.547-0.526c0.323-0.342,0.475-0.878,0.453-1.594
				c-0.006-0.161,0.004-0.333,0.016-0.507c0.02-0.325,0.043-0.694-0.089-0.835c-0.063-0.067-0.183-0.114-0.349-0.14
				c-0.447,0.691-1.301,0.742-1.947,0.781c-0.418,0.025-0.85,0.051-1.002,0.223c-0.104,0.119-0.113,0.36-0.102,0.541
				C145.729,61.837,146.032,62.956,147.143,62.956z"/>
			<path fill="#FFFFFF" d="M52.038,112.058c1.009,0.34,2.151,0.725,2.768,2.13c0.111,0.254,0.207,0.254,0.247,0.254
				c0.191,0,0.606-0.205,1.146-0.78c0.197-0.21,0.321-0.538,0.351-0.728c-0.77-0.161-1.458-0.659-2.125-1.143
				c-0.717-0.519-1.393-1.009-2.047-1.009c-0.475,0-0.949,0.274-1.441,0.835C51.267,111.798,51.645,111.926,52.038,112.058z"/>
			
				<line fill="none" stroke="#FB8C5A" stroke-width="0" stroke-linecap="round" stroke-linejoin="round" x1="50.136" y1="111.659" x2="50.136" y2="111.659"/>
			
				<line fill="none" stroke="#FB8C5A" stroke-width="0" stroke-linecap="round" stroke-linejoin="round" x1="50.136" y1="111.659" x2="50.135" y2="111.659"/>
			<path fill="#FFFFFF" d="M180.929,218.201c-0.224,0.008-0.45,0.009-0.674,0.01c-0.757,0.004-1.614,0.008-1.925,0.319
				c-0.141,0.142-0.395,0.313-0.801,0.313c-0.33,0-0.66-0.11-0.951-0.207c-0.041-0.014-0.09-0.03-0.139-0.046
				c0.018,0.07,0.041,0.155,0.075,0.26c0.054,0.164,0.087,0.37,0.124,0.608c0.155,0.97,0.328,1.496,0.795,1.496
				c0.191,0,0.434-0.069,0.721-0.207l0.23-0.111c0.531-0.261,1.08-0.53,1.75-0.53c0.055,0,0.109,0.002,0.166,0.006
				C180.905,219.692,180.949,219.095,180.929,218.201z"/>
			<path fill="#FFFFFF" d="M196.797,201.982c-0.055-0.043-0.108-0.084-0.154-0.12c-0.506-0.392-1.079-0.836-1.035-1.45
				c0.02-0.259,0.145-0.487,0.373-0.682c-0.045-0.002-0.091-0.005-0.136-0.007c-0.382-0.021-0.757-0.041-1.122-0.041
				c-0.598,0-1.057,0.059-1.445,0.184c-0.102,0.038-0.445,0.345-0.607,0.809c-0.131,0.376-0.101,0.727,0.092,1.042
				c0.326,0.539,0.75,0.779,1.372,0.779c0.479,0,1.001-0.145,1.462-0.272c0.33-0.091,0.643-0.178,0.918-0.205
				C196.625,202.006,196.719,201.994,196.797,201.982z"/>
			<path fill="#FFFFFF" d="M102.283,137.494l0.008-0.191H95.22c0.866,0.259,1.643,0.307,2.289,0.307
				c0.622,0,1.239-0.051,1.835-0.101c0.576-0.048,1.172-0.098,1.75-0.098C101.53,137.41,101.918,137.438,102.283,137.494z"/>
			<path fill="#FFFFFF" d="M82.695,174.59c0.628,0,1.497-0.166,2.07-0.957c0.042-0.057,0.095-0.104,0.154-0.139
				c-0.01-0.005-0.021-0.011-0.031-0.018c-0.037-0.021-0.072-0.046-0.103-0.076c-0.454-0.436-0.956-0.639-1.579-0.639
				c-0.536,0-1.101,0.142-1.698,0.292c-0.613,0.154-1.247,0.314-1.89,0.322C80.53,174.138,81.637,174.59,82.695,174.59z"/>
			<path fill="#FFFFFF" d="M121.945,43.256c0.649,0,1.57-0.215,3.052-0.645c-0.738-0.091-1.499-0.181-2.245-0.181
				c-0.839,0-1.575,0.116-2.258,0.359C121.019,43.107,121.404,43.256,121.945,43.256z"/>
			<path fill="#FFFFFF" d="M79.039,154.943c0.003,0.021,0.005,0.043,0.005,0.064l0.001,0.581l0.001,0.453
				c0.498,0.979,1.164,1.436,2.086,1.436c0.332,0,0.703-0.057,1.124-0.172c-0.091-0.172-0.177-0.342-0.263-0.51
				c-0.379-0.747-0.737-1.453-1.256-1.914c-0.359-0.32-0.458-0.793-0.538-1.174c-0.034-0.164-0.092-0.44-0.15-0.496l-0.033,0.002
				c-0.034,0-0.096,0.006-0.191,0.031C79.104,153.442,78.951,154.282,79.039,154.943z"/>
			<path fill="#FFFFFF" d="M160.258,238.777c0.454,0.048,0.883,0.093,1.297,0.093c0.997,0,1.65-0.275,2.206-0.939
				c-0.112-0.236-0.384-0.612-0.524-0.678c-0.555-0.212-1.073-0.32-1.537-0.32c-1.068,0-1.922,0.574-2.598,1.751
				C159.494,238.698,159.881,238.738,160.258,238.777z"/>
			<path fill="#FFFFFF" d="M62.697,62.21c-0.2-0.051-0.407-0.076-0.627-0.076c-0.436,0-0.861,0.093-1.313,0.192
				c-0.451,0.099-0.918,0.201-1.395,0.201c-0.118,0-0.235-0.006-0.353-0.02c-0.29-0.034-0.561-0.111-0.822-0.187
				c-0.285-0.082-0.555-0.16-0.791-0.16c-0.09,0-0.171,0.011-0.248,0.035c0.031,0.077,0.066,0.159,0.095,0.227
				c0.112,0.262,0.239,0.559,0.303,0.812c0.207,0.828,0.64,0.828,0.782,0.828c0.271,0,0.593-0.13,0.841-0.339
				c0.553-0.468,1.244-0.578,1.854-0.674C61.845,62.919,62.38,62.802,62.697,62.21z"/>
			<path fill="#FFFFFF" d="M208.067,177.758c-0.006-0.04-0.006-0.081-0.002-0.121c0.07-0.65,0.02-1.061-0.153-1.254
				c-0.127-0.141-0.369-0.213-0.721-0.213c-0.065,0-0.133,0.003-0.204,0.008c-0.15,0.011-0.303,0.015-0.453,0.02
				c-0.923,0.027-1.233,0.037-1.219,0.997c0.022,1.44,0.132,1.777,1.16,1.777c0.063,0,0.127-0.002,0.195-0.005
				c0.52-0.027,1.079-0.089,1.285-0.339C208.086,178.471,208.123,178.178,208.067,177.758z"/>
			<path fill="#FFFFFF" d="M163.262,60.467c-0.149,0.247-0.111,0.734,0.023,1.005c0.28,0.563,0.636,0.679,1.084,0.679
				c0.264,0,0.551-0.043,0.855-0.09c0.328-0.049,0.666-0.101,1.004-0.101c0.135,0,0.266,0.008,0.395,0.026
				c0.061,0.009,0.12,0.013,0.182,0.013c0.244,0,0.511-0.059,0.793-0.137c-0.145-0.135-0.264-0.294-0.329-0.491
				c-0.347-1.052-0.886-1.268-1.589-1.268c-0.342,0-0.721,0.057-1.087,0.112c-0.354,0.053-0.72,0.108-1.071,0.116
				C163.371,60.335,163.309,60.388,163.262,60.467z"/>
			<path fill="#FFFFFF" d="M198.465,108.682c-1.451,0.331-2.545,0.58-2.373,2.47c0.984-0.748,2.002-1.52,3.344-1.52
				c0.199,0,0.402,0.017,0.605,0.051c0.061,0.01,0.117,0.016,0.169,0.016c0.165,0,0.215-0.054,0.233-0.075
				c0.045-0.048,0.188-0.256,0.14-0.904c-0.023-0.31-0.104-0.586-0.177-0.73C199.84,108.368,199.142,108.528,198.465,108.682z"/>
			<path fill="#FFFFFF" d="M192.485,75.095c-0.661,0-1.324,0.214-2.026,0.441c-0.679,0.219-1.378,0.444-2.105,0.476
				c-0.015,0.066-0.011,0.131,0.011,0.198c0.521,0.091,1.048,0.259,1.56,0.422c0.722,0.23,1.405,0.448,2.022,0.448
				c0.6,0,1.354-0.187,1.981-1.564C193.472,75.23,193.006,75.095,192.485,75.095z"/>
			<path fill="#FFFFFF" d="M186.199,71.281c0.135-0.035,0.313-0.102,0.465-0.16c0.355-0.135,0.723-0.274,1.078-0.274
				c0.383,0,0.615,0.167,0.744,0.307s0.217,0.315,0.265,0.534c0.286-0.146,0.634-0.283,1.003-0.283c0.137,0,0.269,0.019,0.394,0.056
				c0.104-0.43,0.089-0.771-0.048-1.018c-0.233-0.419-0.867-0.708-1.996-0.906c-0.158-0.028-0.309-0.042-0.445-0.042
				c-0.563,0-1.172,0.183-1.427,1.542C186.212,71.144,186.203,71.223,186.199,71.281z"/>
			<path fill="#FFFFFF" d="M70.602,168.172c0.367,0.558,0.669,0.558,0.773,0.558c0.152,0,0.329-0.055,0.523-0.161
				c-0.32-0.581-0.299-1.274-0.28-1.857c0.034-1.075-0.021-1.47-0.776-1.663c-0.337-0.087-0.846-0.219-1.269-0.219
				c-0.297,0-0.498,0.063-0.599,0.189c-0.083,0.104-0.194,0.37-0.078,1.013C70.481,166.92,70.845,167.167,70.602,168.172z"/>
			<path fill="#FFFFFF" d="M61.988,104.677c-0.552,0-0.949,0.396-1.151,2.165c1.162-0.826,2.41-0.858,3.716-0.892
				c0.136-0.003,0.273-0.007,0.411-0.011C63.794,105.238,62.675,104.677,61.988,104.677z"/>
			<path fill="#FFFFFF" d="M49.062,198.49c-1.239-0.793-2.595-0.867-4.176-0.867c-0.228,0-0.459,0.002-0.694,0.003
				c-0.247,0.002-0.499,0.004-0.755,0.004c-0.16,0-0.326,0-0.497-0.003c1.611,0.661,3.084,0.967,4.587,0.967
				C48.025,198.594,48.533,198.56,49.062,198.49z"/>
			<path fill="#FFFFFF" d="M152.138,214.912c0.026,0.1,0.13,0.283,0.216,0.391c0.197-0.017,0.443-0.024,0.748-0.024
				c0.156,0,0.313,0.002,0.472,0.004c0.155,0.002,0.31,0.004,0.466,0.004c1.37,0,2.494-0.143,3.143-1.751
				c-0.306,0.065-0.6,0.127-0.883,0.188c-1.363,0.288-2.541,0.538-3.678,0.827C152.442,214.596,152.201,214.802,152.138,214.912z"/>
			<path fill="#FFFFFF" d="M74.149,66.729l-0.368,0.589l-0.688,1.101h2.581c-0.476-0.842-0.927-1.528-1.45-2.001
				C74.233,66.526,74.208,66.635,74.149,66.729z"/>
			<path fill="#FFFFFF" d="M72.381,65.695c-0.159,0-0.325,0.012-0.498,0.036l0.087,0.011l1.534,0.191
				C73.169,65.778,72.801,65.695,72.381,65.695z"/>
			<path fill="#FFFFFF" d="M73.126,121.923c-0.082-0.004-0.164-0.006-0.245-0.006c-1.213,0-1.924,0.431-2.112,1.28
				c-0.047,0.21-0.044,0.375,0.009,0.44c0.024,0.031,0.14,0.131,0.59,0.131c0.214,0,0.432-0.021,0.624-0.039l0.092-0.008
				c0.076-0.007,0.154-0.01,0.233-0.01c0.153,0,0.313,0.011,0.478,0.023c0.146,0.011,0.297,0.022,0.445,0.022
				c0.433,0,1.021,0,1.164-1.648C74.256,122.052,73.904,121.961,73.126,121.923z"/>
			<path fill="#FFFFFF" d="M57.039,104.191c-0.347-0.271-0.722-0.563-1.062-0.921c-0.563,1.81,0.301,2.836,1.353,3.671
				c0.062,0.048,0.214,0.101,0.404,0.101c0.172,0,0.578-0.043,0.646-0.444C58.582,105.394,57.936,104.889,57.039,104.191z"/>
			<path fill="#FFFFFF" d="M86.515,174.669c0.03,0.102,0.074,0.251,0.109,0.313c0.525,0.154,1.081,0.295,1.587,0.295
				c0.673,0,1.177-0.252,1.586-0.791c0.18-0.236,0.325-0.53,0.37-0.677c-0.3-0.406-0.536-0.461-0.711-0.461
				c-0.298,0-0.677,0.177-1.077,0.363c-0.186,0.087-0.377,0.176-0.573,0.256c-0.109,0.044-0.228,0.066-0.352,0.066
				c-0.323,0-0.624-0.147-0.943-0.305c-0.292-0.143-0.593-0.29-0.865-0.297c0.001,0.026,0.002,0.053,0.004,0.078
				C86.24,173.728,86.413,174.321,86.515,174.669z"/>
			<path fill="#FFFFFF" d="M195.754,72.314c0.479-0.027,0.97-0.055,1.477-0.069c-0.868-0.664-1.736-0.989-2.629-0.989
				c-0.992,0-1.968,0.392-2.905,0.89c0.639,0.164,1.35,0.24,2.197,0.24C194.49,72.385,195.105,72.35,195.754,72.314z"/>
			<path fill="#FFFFFF" d="M68.557,199.509c0.111,0,0.226-0.009,0.339-0.025c0.706-0.105,1.396-0.271,2.196-0.463
				c0.14-0.033,0.282-0.067,0.428-0.103l-0.322-0.455l-0.595-0.84c-0.25,0.296-0.639,0.509-1.24,0.509
				c-0.302,0-0.608-0.05-0.904-0.097c-0.26-0.042-0.505-0.081-0.71-0.081c-0.262,0-0.45,0-0.492,0.552
				c-0.02,0.245,0.046,0.444,0.199,0.609C67.683,199.362,68.095,199.509,68.557,199.509z"/>
			<path fill="#FFFFFF" d="M96.693,183.021c0.392,0,0.773,0.185,1.143,0.363c0.213,0.103,0.474,0.229,0.613,0.242
				c0.03-0.063,0.095-0.256,0.087-0.738c-0.003-0.215-0.245-0.744-0.601-0.744c-0.145,0-0.323,0.081-0.516,0.233
				c-0.418,0.331-0.918,0.37-1.258,0.37c-0.249,0-0.498-0.024-0.738-0.048c-0.207-0.02-0.41-0.04-0.6-0.04
				c-0.443,0-0.576,0.074-0.603,0.571c-0.018,0.319,0.054,0.398,0.057,0.401c0.013,0.015,0.069,0.038,0.194,0.038
				c0.233,0,0.548-0.079,0.854-0.154c0.188-0.047,0.38-0.095,0.564-0.127C96.092,183.15,96.369,183.021,96.693,183.021z"/>
			<path fill="#FFFFFF" d="M105.098,112.056c-0.152,0.032-0.307,0.048-0.462,0.048c-0.8,0-1.484-0.411-2.146-0.808
				c-0.588-0.352-1.144-0.685-1.704-0.685c-0.24,0-0.48,0.063-0.726,0.193c0.777,0.685,1.683,0.909,2.633,1.144
				c0.603,0.149,1.226,0.303,1.804,0.583c0.062,0.03,0.147,0.047,0.231,0.047c0.358,0,0.381-0.263,0.391-0.375
				C105.121,112.165,105.113,112.114,105.098,112.056z"/>
			<path fill="#FFFFFF" d="M145.026,243.389c-0.037-0.1-0.121-0.27-0.303-0.537c-0.118-0.176-0.113-0.406,0.012-0.576
				c0.259-0.353,0.348-0.558,0.377-0.658c-0.045-0.008-0.112-0.016-0.21-0.016c-0.257,0-0.571,0.05-0.845,0.096
				c-0.072,0.013-0.15,0.019-0.232,0.019c-0.241,0-0.494-0.054-0.738-0.104c-0.205-0.043-0.418-0.088-0.574-0.088
				c-0.104,0-0.133,0.02-0.133,0.02c-0.001,0-0.077,0.089-0.057,0.461c0.029,0.575,0.23,1.539,1.242,1.539
				c0.146,0,0.307-0.02,0.477-0.058c0.209-0.046,0.424-0.058,0.633-0.068C144.781,243.411,144.922,243.404,145.026,243.389z"/>
			<path fill="#FFFFFF" d="M65.292,100.061c-0.877,0.833-1.216,1.587-1.159,2.531c0.02,0.32,0.065,0.472,0.412,0.519
				c0.254-0.671,0.834-1.061,1.316-1.386c0.514-0.345,0.83-0.581,0.894-0.938c0.046-0.256,0.053-0.295-0.61-0.444
				C65.876,100.281,65.566,100.212,65.292,100.061z"/>
			<path fill="#FFFFFF" d="M204.772,113.976c-0.468,0-0.944-0.076-1.406-0.149c-0.447-0.07-0.91-0.144-1.346-0.144
				c-0.336,0-0.693,0.037-1.061,0.193c0.238-0.037,0.479-0.055,0.725-0.055c0.742,0,1.423,0.157,2.082,0.309
				c0.486,0.112,0.945,0.218,1.402,0.255c0.166,0.014,0.304,0.026,0.439,0.026c0.437,0,0.458-0.12,0.485-0.272
				c-0.003-0.059-0.099-0.23-0.175-0.36C205.577,113.911,205.198,113.976,204.772,113.976z"/>
			<path fill="#FFFFFF" d="M65.171,141.088c0.01-0.005,0.021-0.01,0.031-0.016c0.104-0.049,0.248-0.117,0.428-0.117
				c0.063,0,0.125,0.01,0.186,0.025c0.236,0.066,0.455,0.162,0.666,0.254c0.269,0.116,0.521,0.227,0.747,0.244
				c0.096,0.008,0.19,0.012,0.284,0.012c1.048,0,1.722-0.455,1.804-0.711c0.006-0.018,0.019-0.056-0.102-0.142
				c-0.421-0.304-0.84-0.446-1.318-0.446c-0.565,0-1.159,0.199-1.788,0.409c-0.339,0.113-0.685,0.229-1.045,0.321
				C65.11,141.006,65.147,141.058,65.171,141.088z"/>
			<path fill="#FFFFFF" d="M105.65,170.485c0.741,0,1.434-0.328,2.157-0.697c-0.539-0.083-1.049-0.16-1.553-0.16
				c-0.724,0-1.308,0.17-1.828,0.542C104.836,170.381,105.24,170.485,105.65,170.485z"/>
			<path fill="#FFFFFF" d="M191.211,238.774c0.105,0.015,0.204,0.022,0.296,0.022c0.25,0,0.427-0.057,0.524-0.167
				c0.137-0.154,0.186-0.472,0.135-0.895c-0.003-0.021-0.004-0.041-0.004-0.062c0.001-0.263-0.048-0.444-0.145-0.541
				c-0.102-0.103-0.305-0.155-0.604-0.155c-0.059,0-0.117,0.002-0.179,0.006c-0.393,0.022-1.671,0.188-1.675,1.372
				c-0.002,0.268,0.061,0.351,0.08,0.37c0.027,0.027,0.113,0.074,0.375,0.074c0.134,0,0.274-0.011,0.414-0.021
				c0.162-0.012,0.322-0.023,0.473-0.023C191.01,238.754,191.114,238.76,191.211,238.774z"/>
			<path fill="#FFFFFF" d="M62.263,190.192c0.423,0,0.853-0.06,1.302-0.181c-0.607-0.661-1.31-0.813-2.145-0.813
				c-0.388,0-0.801,0.033-1.238,0.069c-0.241,0.02-0.487,0.039-0.738,0.055C60.442,189.911,61.359,190.192,62.263,190.192z"/>
			<path fill="#FFFFFF" d="M72.573,136.486c0.697,0.248,1.341,0.37,1.95,0.37c0.813,0,1.572-0.217,2.336-0.675
				c-0.641-0.146-1.271-0.252-1.921-0.252C74.103,135.928,73.333,136.108,72.573,136.486z"/>
			<path fill="#FFFFFF" d="M110.331,57.769c0.867,0.28,1.687,0.544,2.543,0.544c0.271,0,0.535-0.028,0.794-0.083
				c-0.893-0.53-1.716-0.789-2.497-0.789c-0.408,0-0.81,0.069-1.212,0.208C110.084,57.689,110.208,57.73,110.331,57.769z"/>
			<path fill="#FFFFFF" d="M51.511,85.499c-0.701,0-1.451,0.139-1.729,1.604c0.561-0.262,1.097-0.565,1.62-0.862
				c0.384-0.217,0.773-0.438,1.173-0.641C52.2,85.543,51.844,85.499,51.511,85.499z"/>
			<path fill="#FFFFFF" d="M196.008,194.037c0.031,0.016,0.063,0.031,0.093,0.047c0.325,0.163,0.662,0.331,0.915,0.331
				c0.094,0,0.314,0,0.595-0.479c0.231-0.395,0.23-0.729-0.433-1.367c-0.376-0.359-0.818-0.566-1.216-0.566
				c-0.232,0-0.439,0.07-0.616,0.208c-0.168,0.131-0.273,0.259-0.283,0.343c-0.015,0.141,0.207,0.407,0.385,0.621
				C195.657,193.426,195.889,193.705,196.008,194.037z"/>
			<path fill="#FFFFFF" d="M66.016,70.755c0.073,0.039,0.147,0.077,0.222,0.116c0.394,0.203,0.801,0.413,1.11,0.767
				c0.431,0.491,0.877,0.74,1.328,0.74c0.265,0,0.538-0.087,0.814-0.26c0.017-0.071-0.08-0.378-0.133-0.543
				c-0.079-0.252-0.161-0.512-0.165-0.771c-0.006-0.406-0.08-0.406-0.26-0.406c-0.165,0-0.374,0.038-0.596,0.079
				c-0.261,0.048-0.529,0.097-0.795,0.097c-0.138,0-0.262-0.013-0.378-0.041c-0.087-0.021-0.184-0.03-0.296-0.03
				c-0.225,0-0.474,0.04-0.736,0.082c-0.041,0.007-0.082,0.013-0.123,0.02C66.011,70.655,66.013,70.705,66.016,70.755z"/>
			<path fill="#FFFFFF" d="M43.605,178.648h3.163c-0.587-0.291-1.131-0.504-1.692-0.504
				C44.591,178.144,44.11,178.307,43.605,178.648z"/>
			<path fill="#FFFFFF" d="M167.797,108.845l-0.355-0.002c-0.533,0-1.012,0.023-1.45,0.212c0.214,0.057,0.425,0.126,0.634,0.194
				c0.467,0.153,0.907,0.297,1.319,0.297c0.366,0,0.817-0.105,1.3-0.757c-0.366,0.048-0.723,0.059-1.066,0.059L167.797,108.845z"/>
			<path fill="#FFFFFF" d="M156.727,48.134c-0.256-0.021-0.518-0.033-0.784-0.033c-0.7,0-1.388,0.082-2.083,0.25
				c0.361,0.199,0.721,0.295,1.095,0.295C155.555,48.646,156.127,48.403,156.727,48.134z"/>
			<path fill="none" stroke="#FB8C5A" stroke-width="0" stroke-linecap="round" stroke-linejoin="round" d="M159.077,48.04
				c0.117,0.029,0.233,0.058,0.351,0.087"/>
			<path fill="#FFFFFF" d="M58.149,127.614c-0.187-0.036-0.365-0.054-0.533-0.054c-1.063,0-1.729,0.726-2.393,1.746
				c0.151,0.033,0.301,0.049,0.449,0.049c0.841,0,1.56-0.539,2.32-1.11c0.109-0.082,0.219-0.164,0.328-0.245
				C58.273,127.863,58.205,127.703,58.149,127.614z"/>
			<path fill="#FFFFFF" d="M188.573,183.589c-1.22,0.387-1.927,0.665-1.95,1.684c0.324-0.039,0.666-0.048,1.001-0.057
				c0.69-0.018,1.474-0.037,1.69-0.371c0.098-0.149,0.191-0.53-0.132-1.458C188.981,183.459,188.776,183.525,188.573,183.589z"/>
			<path fill="#FFFFFF" d="M56.852,193.561c-0.446,1.058-0.448,1.523-0.034,1.735c0.056,0.028,0.133,0.042,0.23,0.042
				c0.351,0,0.854-0.181,1.342-0.355c0.04-0.015,0.08-0.028,0.12-0.043c-0.288-0.429-0.357-0.935-0.413-1.346
				c-0.055-0.396-0.102-0.737-0.287-0.957c-0.071-0.085-0.131-0.148-0.179-0.194c-0.02,0.056-0.038,0.113-0.053,0.158
				C57.474,192.926,57.306,193.445,56.852,193.561z"/>
			<path fill="#FFFFFF" d="M52.898,70.512l-0.046,0c-0.561,0.011-0.801,0.148-0.854,0.228c-0.056,0.083,0.007,0.267,0.036,0.343
				c0.223,0.572,0.694,1.253,1.677,1.253c0.091,0,0.185-0.006,0.281-0.018c0.567-0.069,0.667-0.184,0.676-0.47
				C54.232,70.901,53.714,70.512,52.898,70.512z"/>
			<path fill="#FFFFFF" d="M102.625,196.745c0.693,0,1.053-0.151,1.504-0.622l-2.702,0.521
				C101.909,196.71,102.3,196.745,102.625,196.745z"/>
			<path fill="#FFFFFF" d="M167.118,192.805c0.236,0,0.503-0.033,0.784-0.069c0.336-0.043,0.716-0.092,1.122-0.092
				c0.009,0,0.019,0,0.028,0c-1.012-0.831-1.762-1.214-2.59-1.214c-0.095,0-0.191,0.005-0.29,0.015
				c-0.083,0.241-0.159,0.69-0.124,0.858C166.389,192.719,166.723,192.805,167.118,192.805z"/>
			<path fill="#FFFFFF" d="M94.75,170.533c0.381,0,0.868-0.103,1.448-0.759h-3.54C93.485,170.257,94.165,170.533,94.75,170.533z"/>
			<path fill="#FFFFFF" d="M80.878,123.826c0.275,0,0.572-0.02,0.879-0.04c0.086-0.005,0.172-0.011,0.259-0.017l-1.636-1.131
				l-0.778-0.538c-0.087,0.852,0.049,1.245,0.197,1.425C79.973,123.737,80.295,123.826,80.878,123.826z"/>
			<path fill="#FFFFFF" d="M96.429,153.727c-0.462,0-0.961,0.122-1.548,0.316c0.735,0.489,1.365,0.57,1.943,0.57
				c0.375,0,0.759-0.041,1.165-0.084c0.059-0.006,0.118-0.012,0.178-0.019C97.468,153.835,96.904,153.727,96.429,153.727z"/>
			<path fill="#FFFFFF" d="M69.338,114.628c-0.104-0.072-0.204-0.11-0.288-0.11c-0.138,0-0.217,0.102-0.244,0.189
				c-0.041,0.132,0.021,0.262,0.174,0.365c0.383,0.261,0.774,0.387,1.197,0.387c0.802,0,1.636-0.455,2.453-0.961
				c-0.047-0.006-0.089-0.008-0.127-0.008c-0.263,0-0.548,0.106-0.85,0.22c-0.353,0.132-0.752,0.281-1.192,0.281
				C70.062,114.991,69.694,114.873,69.338,114.628z"/>
			<path fill="#FFFFFF" d="M49.387,123.633c0.446,0.063,0.872,0.104,1.246,0.104c0.802,0,1.339-0.176,1.771-0.606
				c-0.201-0.113-0.403-0.236-0.594-0.389c-0.377-0.304-0.681-0.458-0.904-0.458c-0.276,0-0.529,0.271-0.918,0.712
				C49.812,123.198,49.616,123.42,49.387,123.633z"/>
			<path fill="#FFFFFF" d="M87.604,147.205c-0.208,0.003-0.841,0.011-0.963,0.17c-0.031,0.041-0.045,0.159,0.009,0.369
				c0.131,0.508,0.441,0.996,0.77,1.514c0.06,0.094,0.119,0.188,0.178,0.281c0.561-0.401,0.815-0.778,0.762-1.423
				c-0.003-0.04-0.001-0.08,0.005-0.12c0.032-0.198,0.044-0.465-0.076-0.606c-0.102-0.118-0.333-0.185-0.652-0.185v-0.248
				c-0.006,0-0.01,0-0.016,0L87.604,147.205z"/>
			<path fill="#FFFFFF" d="M52.888,207.371c-0.008,0.028-0.023,0.079,0.057,0.156c0.213,0.206,0.441,0.294,0.762,0.294
				c0.264,0,0.56-0.06,0.874-0.122c0.373-0.073,0.758-0.15,1.171-0.15c0.268,0,0.514,0.032,0.749,0.099
				c0.008-0.191-0.039-0.539-0.164-0.958c-0.217,0.026-0.435,0.051-0.652,0.075c-0.792,0.091-1.611,0.185-2.399,0.328
				C53.058,207.134,52.92,207.267,52.888,207.371z"/>
			<path fill="#FFFFFF" d="M77.643,66.718c0.12,0,0.35-0.093,0.763-0.538c0.337-0.362,0.671-0.727,1.004-1.092
				c-0.066,0.027-0.134,0.057-0.202,0.086c-0.345,0.149-0.701,0.304-1.105,0.304c-0.092,0-0.185-0.008-0.277-0.026
				c-0.27-0.051-0.521-0.18-0.744-0.292c-0.168-0.085-0.376-0.191-0.475-0.191c0,0,0.001,0,0,0c0,0-0.04,0.03-0.095,0.142
				c-0.009,0.132,0.274,0.745,0.781,1.369C77.422,66.637,77.539,66.718,77.643,66.718z"/>
			<path fill="#FFFFFF" d="M77.54,249.256c-0.423-0.061-0.821-0.117-1.2-0.117c-0.438,0-0.936,0.066-1.437,0.473
				c0.504,0.187,1.013,0.357,1.454,0.357c0.352,0,0.787-0.094,1.215-0.709C77.562,249.259,77.551,249.257,77.54,249.256z"/>
			<path fill="#FFFFFF" d="M48.924,223.892c-0.793,0-1.287,0.511-1.365,1.016c-0.039,0.251,0.239,0.669,0.408,0.91
				c1.586-0.385,1.899-0.953,1.989-1.466c0.034-0.188,0.015-0.294-0.013-0.326c-0.098-0.119-0.577-0.127-0.863-0.132l-0.122-0.002
				l-0.017-0.25h-0.018V223.892z"/>
			<path fill="#FFFFFF" d="M54.256,62.177c-0.195,0-0.513,0.194-0.792,0.366c-0.211,0.129-0.436,0.267-0.674,0.37
				c0.462,0.461,0.883,0.824,1.363,0.824c0.136,0,0.276-0.027,0.429-0.083c0.111-0.21,0.194-0.836,0.104-1.02
				C54.537,62.331,54.393,62.177,54.256,62.177z"/>
			<path fill="#FFFFFF" d="M186.713,75.069c-0.273,0-0.583,0.142-0.871,0.398c-0.134,0.188-0.134,1.059,0.015,1.261
				c0.273,0.242,0.583,0.384,0.856,0.384c0.318,0,0.596-0.194,0.828-0.577v-0.89C187.309,75.262,187.031,75.069,186.713,75.069z"/>
			<path fill="#FFFFFF" d="M196.809,237.009c0.26,0.713,0.402,0.833,0.451,0.852c0.014-0.001,0.092-0.024,0.221-0.128
				c0.316-0.254,0.508-0.788,0.711-1.354c0.023-0.063,0.047-0.128,0.07-0.192h-2.098
				C196.451,236.423,196.69,236.679,196.809,237.009z"/>
			<path fill="#FFFFFF" d="M48.716,55.458c0.115,0,0.238-0.014,0.368-0.042c-0.063-0.345-0.019-0.707,0.021-1.022
				c0.04-0.321,0.086-0.684-0.021-0.81c-0.034-0.041-0.157-0.138-0.561-0.157c-0.032-0.001-0.069-0.002-0.109-0.002
				c-0.457,0-0.868,0.111-0.998,0.271c-0.021,0.025-0.069,0.085-0.034,0.258C47.521,54.639,47.865,55.458,48.716,55.458z"/>
			<path fill="#FFFFFF" d="M201.323,192.035c-0.641,0-1.146,0.204-1.588,0.642c-0.015,0.119,0.036,0.395,0.081,0.611
				c0.092-0.064,0.184-0.132,0.277-0.199c0.494-0.358,1.023-0.741,1.619-1.032C201.581,192.043,201.451,192.035,201.323,192.035z"/>
			<path fill="none" stroke="#FB8C5A" stroke-width="0" stroke-linecap="round" stroke-linejoin="round" d="M204.438,192.146
				c-0.009-0.002-0.018-0.003-0.025-0.005"/>
			<path fill="#FFFFFF" d="M199.278,170.254c-0.017,0.112-0.039,0.268-0.041,0.368c0.002,0,0.002,0,0.004,0
				c0.062,0,0.174-0.009,0.356-0.052c0.337-0.078,0.899-0.209,0.978-0.356c0.014-0.023,0.019-0.105-0.041-0.265
				c-0.217-0.57-0.672-1.251-1.618-1.251c-0.017,0-0.034,0-0.052,0.001c0.087,0.058,0.162,0.128,0.227,0.208
				C199.414,169.314,199.338,169.835,199.278,170.254z"/>
			<path fill="#FFFFFF" d="M170.368,209.543c0.084,0,0.171-0.004,0.26-0.013c-0.53-0.725-1.206-1.063-2.154-1.097
				C168.952,209.119,169.515,209.543,170.368,209.543z"/>
			<path fill="#FFFFFF" d="M176.145,151.022c-0.299,0-0.68,0.09-1.143,0.659h2.822C177.207,151.291,176.623,151.022,176.145,151.022
				z"/>
			<path fill="#FFFFFF" d="M163.871,214.059c-0.746,0.363-1.5,0.734-2.242,1.113C162.636,215.064,163.366,214.706,163.871,214.059z"
				/>
			<path fill="#FFFFFF" d="M90.322,186.458c-0.267,0-0.539,0.088-0.832,0.268c-0.022,0.042-0.046,0.112-0.058,0.171
				c0.409,0.454,0.846,0.551,1.366,0.551c0.318,0,0.677-0.041,1.057-0.084c0.109-0.013,0.221-0.025,0.336-0.037
				C91.463,186.837,90.881,186.458,90.322,186.458z"/>
			<path fill="#FFFFFF" d="M72.774,100.608c-0.075-0.552-0.153-0.742-0.38-0.797c-0.192,0.122-0.397,0.234-0.598,0.343
				c-0.44,0.24-0.94,0.513-1.033,0.774c-0.043,0.122-0.052,0.222-0.023,0.262c0.038,0.054,0.197,0.135,0.479,0.135
				c0.124,0,0.251-0.016,0.365-0.046c0.087-0.023,0.18-0.034,0.283-0.034c0.204,0,0.418,0.045,0.624,0.088
				c0.152,0.032,0.31,0.064,0.424,0.07c-0.001-0.072-0.015-0.199-0.07-0.405C72.815,100.89,72.794,100.756,72.774,100.608z"/>
			<path fill="#FFFFFF" d="M94.969,175.067c0.575-0.032,0.697-0.152,0.698-0.153c0.005-0.067-0.115-0.351-0.188-0.521
				c-0.182-0.424-0.406-0.952-0.154-1.446c0.109-0.213,0.285-0.38,0.534-0.503c-0.072-0.008-0.141-0.011-0.203-0.011
				c-0.361,0-0.466,0.111-0.501,0.148c-0.237,0.253-0.191,0.987-0.17,1.34c0.016,0.253,0.004,0.516-0.006,0.747
				C94.974,174.787,94.967,174.943,94.969,175.067z"/>
			<path fill="#FFFFFF" d="M198.781,117.317c-0.636,0-1.22,0.32-1.839,0.659c-0.066,0.037-0.133,0.073-0.201,0.11
				c0.286,0.05,0.563,0.083,0.83,0.083c0.517,0,1.102-0.107,1.645-0.802C199.071,117.333,198.926,117.317,198.781,117.317z"/>
			<path fill="#FFFFFF" d="M166.373,198.375c0.139,0.181,0.312,0.318,0.518,0.318c0.274,0,0.624-0.217,0.959-0.596
				c0.079-0.182-0.037-1.003-0.191-1.226c-0.172-0.081-0.27-0.094-0.314-0.094c-0.117,0-0.218,0.196-0.385,0.609
				C166.829,197.706,166.669,198.102,166.373,198.375z"/>
			<path fill="#FFFFFF" d="M64.935,178.071c-0.039-0.002-0.077-0.003-0.115-0.003c-0.204,0-0.473,0.03-0.598,0.176
				c-0.124,0.144-0.115,0.413-0.085,0.614c0.017,0.113,0.02,0.242,0.021,0.375c0.001,0.075,0.002,0.186,0.012,0.262
				c0.313-0.298,0.725-0.401,1.066-0.487c0.594-0.148,0.667-0.191,0.625-0.608c-0.024-0.246-0.03-0.305-0.683-0.319
				C65.096,178.077,65.014,178.075,64.935,178.071z"/>
			<path fill="#FFFFFF" d="M76.897,172.539c-0.277-0.106-0.548-0.193-0.771-0.193c-0.146,0-0.449,0-0.758,0.657
				c-0.094,0.197,0.002,0.83,0.122,1.03c0.155,0.063,0.29,0.096,0.394,0.096c0.229,0,0.352-0.197,0.603-0.787
				C76.597,173.081,76.72,172.791,76.897,172.539z"/>
			<path fill="#FFFFFF" d="M113.702,181.787c-0.225,0-0.464,0.06-0.729,0.182c-0.041,0.103-0.078,0.293-0.086,0.426
				c0.356,0.234,0.728,0.349,1.127,0.349c0.31,0,0.64-0.067,0.999-0.204C114.573,182.034,114.14,181.787,113.702,181.787z"/>
			<path fill="#FFFFFF" d="M101.648,183.003c0.001,0.12,0.031,0.301,0.066,0.398c0.299,0.153,0.563,0.228,0.809,0.228
				c0.438,0,0.856-0.26,1.27-0.792c-0.371-0.094-0.725-0.16-1.061-0.16C102.314,182.677,101.966,182.781,101.648,183.003z"/>
			<path fill="#FFFFFF" d="M193.254,182.798c-0.486-0.074-0.908-0.109-1.309-0.109c-0.535,0-1.029,0.066-1.496,0.201
				c0.461,0.324,0.91,0.488,1.342,0.488C192.262,183.378,192.752,183.184,193.254,182.798z"/>
			<path fill="#FFFFFF" d="M167.084,189.3c0.197,0,0.408-0.033,0.63-0.081c-0.126-0.188-0.224-0.387-0.312-0.564
				c-0.242-0.49-0.354-0.653-0.536-0.653c-0.075,0-0.169,0.021-0.278,0.062c-0.121,0.081-0.371,0.557-0.416,0.795
				C166.419,189.166,166.698,189.3,167.084,189.3z"/>
			<path fill="#FFFFFF" d="M106.291,58.079c-0.758,0.153-0.948,0.247-0.929,0.747c0.032,0.077,0.276,0.307,0.392,0.337l0.051,0.006
				c0.224,0.028,0.456,0.058,0.659,0.058c0.238,0,0.393-0.04,0.471-0.122c0.089-0.094,0.136-0.29,0.135-0.56
				c-0.1-0.21-0.094-0.451-0.081-0.651C106.768,57.983,106.526,58.031,106.291,58.079z"/>
			<path fill="#FFFFFF" d="M118.744,236.987l0.657,0.174l1.478,0.39c0.026-0.087,0.061-0.203,0.089-0.307
				c-0.459-0.212-0.937-0.312-1.48-0.312C119.256,236.932,119.011,236.949,118.744,236.987z"/>
			<path fill="#FFFFFF" d="M165.989,74.251c-0.156-0.026-0.312-0.039-0.467-0.039c-0.796,0-1.507,0.358-2.166,0.813
				c0.248,0.079,0.487,0.119,0.723,0.119C164.702,75.145,165.309,74.865,165.989,74.251z"/>
			<path fill="#FFFFFF" d="M70.817,75.14c-0.404,0-0.701,0.091-0.969,0.302c-0.002,0.118,0.029,0.309,0.066,0.41
				c0.291,0.149,0.548,0.222,0.783,0.222c0.432,0,0.86-0.27,1.3-0.82c-0.125-0.014-0.248-0.029-0.369-0.044
				C71.34,75.175,71.069,75.14,70.817,75.14z"/>
			<path fill="#FFFFFF" d="M59.769,207.291c0.093,0,0.188-0.012,0.282-0.034c-0.303-0.135-0.584-0.308-0.848-0.47
				c-0.472-0.291-0.918-0.565-1.361-0.565c-0.013,0-0.026,0.001-0.04,0.001c0.092,0.068,0.183,0.138,0.273,0.207
				C58.656,206.872,59.204,207.291,59.769,207.291z"/>
			<path fill="#FFFFFF" d="M203.221,81.67c0.063,0.047,0.113,0.108,0.148,0.179c0.023,0.046,0.044,0.084,0.063,0.117
				c0.008-0.014,0.016-0.028,0.024-0.044c0.054-0.662-0.279-1.184-0.662-1.783c-0.119-0.187-0.239-0.376-0.352-0.574
				c-0.154,0.274-0.222,0.531-0.201,0.769C202.279,80.76,202.608,81.21,203.221,81.67z"/>
			<path fill="#FFFFFF" d="M185.668,91.024c0.195,0,0.409-0.023,0.651-0.072c0.069-0.102,0.153-0.303,0.179-0.426
				c-0.271-0.369-0.566-0.448-0.922-0.448c-0.259,0-0.557,0.046-0.871,0.096c-0.135,0.021-0.275,0.043-0.422,0.063
				C184.705,90.921,185.231,91.024,185.668,91.024z"/>
			<path fill="#FFFFFF" d="M60.006,96.119c0.149,0.084,0.259,0.132,0.334,0.159c-0.004-0.113-0.021-0.255-0.032-0.347
				c-0.018-0.143-0.031-0.275-0.031-0.375c0-0.171,0.02-0.361,0.041-0.558c0.036-0.337,0.082-0.756-0.044-0.902
				c-0.06-0.07-0.206-0.114-0.411-0.124c-0.016,0.097-0.017,0.267-0.018,0.388c-0.003,0.38-0.008,1.02-0.419,1.468
				C59.621,95.917,59.816,96.012,60.006,96.119z"/>
			<path fill="#FFFFFF" d="M184.266,112.195c-0.02-0.15-0.015-0.331,0.05-0.524c-0.341,0.108-0.548,0.541-0.86,1.33l-0.059,0.147
				c-0.047,0.12-0.077,0.204-0.096,0.264l0.16,0.023c0.364,0.053,0.777,0.112,1.115,0.112c0.188,0,0.298-0.019,0.358-0.036
				c-0.046-0.091-0.138-0.226-0.204-0.322C184.537,112.906,184.317,112.583,184.266,112.195z"/>
			<path fill="#FFFFFF" d="M46.409,129.844c-0.008,0.184,0.114,0.482,0.652,0.926l0.682-2.24
				C47.057,128.96,46.425,129.447,46.409,129.844z"/>
			<path fill="#FFFFFF" d="M190.178,62.018c0.104,0.005,0.207,0.009,0.309,0.009c0.339,0,0.554-0.046,0.639-0.136
				c0.066-0.071,0.097-0.227,0.084-0.438c-0.008-0.121,0.002-0.273,0.016-0.435c0.007-0.088,0.018-0.225,0.018-0.334
				c-0.178,0.052-0.369,0.088-0.556,0.123c-0.769,0.143-1.114,0.259-1.189,0.779c-0.009,0.061-0.024,0.211,0.027,0.273
				C189.567,61.908,189.706,61.996,190.178,62.018z"/>
			<path fill="#FFFFFF" d="M61.133,164.178c-0.061-0.066-0.218-0.145-0.622-0.145c-0.098,0-0.198,0.005-0.3,0.012l-0.142,0.023
				c-0.065,0.009-0.154,0.021-0.232,0.037c0.021,0.035,0.049,0.078,0.085,0.129c0.188,0.264,0.279,0.574,0.367,0.875
				c0.18,0.613,0.25,0.664,0.419,0.664c0.063,0,0.138-0.01,0.223-0.031c0.094-0.146,0.239-0.613,0.281-1.109
				C61.223,164.507,61.227,164.28,61.133,164.178z"/>
			<path fill="#FFFFFF" d="M167.604,250.851h2.075c-0.297-0.147-0.599-0.218-0.919-0.218
				C168.4,250.633,168.021,250.716,167.604,250.851z"/>
			<path fill="#FFFFFF" d="M77.704,130.177c0.349,0,0.66-0.259,1-0.593c-0.063-0.016-0.126-0.033-0.188-0.05
				c-0.253-0.069-0.493-0.134-0.687-0.134c-0.141,0-0.351,0-0.563,0.485c0.003,0.056,0.03,0.151,0.059,0.208
				C77.462,130.15,77.586,130.177,77.704,130.177z"/>
			<path fill="#FFFFFF" d="M71.493,206.805c0.006,0.459,0.116,0.831,0.313,1.036c0.116,0.122,0.256,0.181,0.428,0.181
				c0.202,0,0.437-0.082,0.681-0.239c0.071-0.25-0.226-1.069-0.791-1.604L71.493,206.805z"/>
			<path fill="#FFFFFF" d="M47.911,70.378c0.174,0.003,0.346,0.006,0.514,0.006c0.405,0,0.823-0.016,1.189-0.116
				c-0.129-0.148-0.332-0.331-0.515-0.442c-0.236-0.144-0.433-0.217-0.585-0.217c-0.27,0-0.496,0.284-0.799,0.766
				C47.781,70.376,47.847,70.377,47.911,70.378z"/>
			<path fill="#FFFFFF" d="M71.442,53.106c-0.072-0.086-0.225-0.209-0.326-0.266c-0.671,0.221-1.145,0.479-1.199,1.257
				c0.255-0.137,0.516-0.215,0.739-0.282C71.178,53.658,71.393,53.594,71.442,53.106z"/>
			<path fill="#FFFFFF" d="M71.76,61.658c0.057,0.234,0.174,0.483,0.322,0.784c0.085,0.173,0.177,0.359,0.254,0.557
				c0.061-0.156,0.083-0.303,0.066-0.439C72.367,62.267,72.152,61.965,71.76,61.658z"/>
			<path fill="#FFFFFF" d="M151.168,59.719c-0.001,0.069-0.002,0.138-0.004,0.206c-0.012,0.648-0.021,1.222,0.107,1.698
				c0.141-0.126,0.332-0.335,0.446-0.522c0.177-0.289,0.245-0.518,0.206-0.682C151.865,60.182,151.547,59.955,151.168,59.719z"/>
			<path fill="#FFFFFF" d="M62.151,133.135c0.947-0.138,0.94-0.207,0.912-0.484c-0.026-0.268-0.07-0.387-0.814-0.407l-0.094-0.001
				c-0.44,0-0.669,0.094-0.737,0.183c-0.063,0.083-0.038,0.252-0.011,0.364c0.091,0.089,0.411,0.214,0.552,0.269
				C62.027,133.084,62.092,133.11,62.151,133.135z"/>
			<path fill="#FFFFFF" d="M66.982,62.931c-0.094-0.06-0.182-0.119-0.267-0.175c-0.455-0.302-0.813-0.541-1.172-0.541
				c-0.102,0-0.206,0.018-0.317,0.056c-0.043,0.115-0.079,0.316-0.081,0.442C65.411,62.916,65.711,63,66.147,63
				C66.393,63,66.668,62.973,66.982,62.931z"/>
			<path fill="#FFFFFF" d="M107.324,150.395c0.221,0,0.465-0.094,0.717-0.226h-1.273
				C107.039,150.395,107.237,150.395,107.324,150.395z"/>
			<path fill="#FFFFFF" d="M166.49,56.346c0.068,0.001,0.136,0.002,0.203,0.003c0.18,0.003,0.355,0.006,0.527,0.006
				c0.396,0,0.805-0.016,1.164-0.112c-0.127-0.15-0.33-0.334-0.514-0.446c-0.236-0.145-0.434-0.218-0.586-0.218
				C167.017,55.579,166.791,55.864,166.49,56.346z"/>
			<path fill="#FFFFFF" d="M108.28,47.597c-0.18,0-0.385,0.048-0.61,0.142l1.586,0.564C108.838,47.597,108.438,47.597,108.28,47.597
				z"/>
			<path fill="#FFFFFF" d="M72.777,188.293c-0.421,0-0.779,0.108-1.114,0.339c0.019,0.137,0.068,0.329,0.116,0.442
				c0.087,0.02,0.17,0.029,0.251,0.029c0.433,0,0.819-0.286,1.267-0.617c0.051-0.037,0.103-0.076,0.155-0.114
				C73.204,188.319,72.984,188.293,72.777,188.293z"/>
			<path fill="#FFFFFF" d="M73.031,228.323c0.055,0.003,0.108,0.007,0.162,0.01c0.312,0.021,0.617,0.041,0.912,0.041
				c0.289,0,0.53-0.021,0.739-0.064c-0.13-0.149-0.323-0.329-0.494-0.435c-0.234-0.145-0.438-0.222-0.591-0.222
				C73.506,227.654,73.3,227.902,73.031,228.323z"/>
			<path fill="#FFFFFF" d="M113.57,46.329c-0.002-0.001-0.013-0.034-0.045-0.067c-0.028-0.029-0.063-0.046-0.093-0.046
				c-0.013,0-0.026,0.003-0.042,0.01c-0.385,0.162-0.75,0.435-1.173,0.752c-0.047,0.035-0.095,0.07-0.143,0.106l0.438,0.365
				l0.226,0.188c0.03-0.04,0.06-0.079,0.089-0.118C113.131,47.117,113.418,46.736,113.57,46.329z"/>
			<path fill="#FFFFFF" d="M175.692,189.53c0.448,0.273,0.871,0.532,1.288,0.532c0.04,0,0.079-0.003,0.12-0.008
				c-0.569-0.385-1.145-0.679-1.75-0.729C175.467,189.393,175.581,189.462,175.692,189.53z"/>
			<path fill="#FFFFFF" d="M111.743,238.743c0.042,0.002,0.083,0.004,0.123,0.004c0.506,0,1.035-0.181,1.56-1.236
				C112.789,237.977,112.252,238.37,111.743,238.743z"/>
			<path fill="#FFFFFF" d="M152.12,192.702c0.176,0.083,0.334,0.124,0.481,0.124c0.35,0,0.697-0.242,1.139-0.549
				c0.076-0.054,0.157-0.109,0.241-0.167c-0.353-0.053-0.661-0.096-0.927-0.096c-0.402,0-0.696,0.084-0.979,0.501
				C152.08,192.571,152.1,192.65,152.12,192.702z"/>
			<path fill="#FFFFFF" d="M86.798,239.049c-0.237,0.259-0.418,0.57-0.397,0.91c0.024,0.416,0.365,0.84,0.934,1.161
				c0.025,0.015,0.049,0.027,0.07,0.039c-0.001-0.051-0.002-0.1-0.004-0.14c-0.008-0.219-0.017-0.456,0.036-0.675l-0.412-0.837
				L86.798,239.049z"/>
			<path fill="#FFFFFF" d="M109.569,240.666c-0.171,0-0.354,0.021-0.548,0.059c0.155,0.168,0.282,0.347,0.396,0.506
				c0.276,0.389,0.419,0.559,0.625,0.559c0.031,0,0.065-0.003,0.104-0.01c0.123-0.144,0.293-0.558,0.34-0.784
				C110.227,240.769,109.939,240.666,109.569,240.666z"/>
			<path fill="#FFFFFF" d="M176.504,167.74c-0.432,0-0.732,0.082-1.004,0.279c0.002,0.128,0.036,0.328,0.077,0.442
				c0.115,0.042,0.224,0.062,0.327,0.062c0.35,0,0.701-0.232,1.146-0.528c0.089-0.059,0.183-0.121,0.28-0.184
				C177.022,167.768,176.748,167.74,176.504,167.74z"/>
			<path fill="#FFFFFF" d="M188.895,98.307c-0.385-0.368-0.766-0.635-1.11-0.635c-0.091,0-0.185,0.019-0.28,0.057
				c0.199,0.075,0.386,0.171,0.563,0.261C188.354,98.136,188.628,98.276,188.895,98.307z"/>
			<path fill="#FFFFFF" d="M91.303,90.453c0.01,0.04,0.021,0.079,0.031,0.119c0.498-0.286,0.891-0.659,1.187-1.128
				c-0.234-0.096-0.472-0.189-0.638-0.189c-0.021,0-0.04,0.001-0.059,0.005c-0.324,0.06-0.543,0.158-0.616,0.274
				C91.101,89.704,91.208,90.102,91.303,90.453z"/>
			<path fill="#FFFFFF" d="M41.442,87.226c0.014,0,0.027,0,0.041,0c0.653,0,0.879-0.139,0.956-0.221
				c0.1-0.108,0.127-0.313,0.095-0.705l-0.006-0.085c-0.007-0.085-0.018-0.223-0.034-0.341c-0.011,0.008-0.022,0.018-0.035,0.027
				c-0.288,0.232-0.642,0.292-0.952,0.344c-0.146,0.024-0.389,0.065-0.438,0.115c0.001,0-0.017,0.042-0.005,0.161
				C41.09,86.774,41.304,87.06,41.442,87.226z"/>
			<path fill="#FFFFFF" d="M164.692,196.299l-0.011-0.001c-0.183,0-0.563,0.279-0.842,0.483c-0.061,0.044-0.122,0.089-0.184,0.133
				c0.39,0.503,0.818,0.74,1.326,0.74c0.018-0.161,0.048-0.319,0.076-0.468c0.052-0.27,0.116-0.606,0.035-0.723
				C165.045,196.395,164.899,196.334,164.692,196.299z"/>
			<path fill="#FFFFFF" d="M153.392,249.163c-0.156,0.035-0.272,0.097-0.334,0.177c-0.06,0.079-0.079,0.199-0.057,0.357
				c0.044,0.313,0.149,1.079,0.315,1.204c0.041,0.024,0.085,0.037,0.129,0.037c0.15,0,0.322-0.156,0.348-0.446l0.018-0.191
				C153.875,249.654,153.883,249.359,153.392,249.163z"/>
			<path fill="#FFFFFF" d="M158.03,202.281c0.013,0,0.026,0,0.041,0c0.054,0,0.109-0.002,0.164-0.004
				c0.067-0.002,0.135-0.005,0.201-0.005c0.102,0,0.227,0.005,0.355,0.034c0.641-0.08,0.635-0.154,0.612-0.43
				c-0.011-0.128-0.06-0.425-0.272-0.426c-0.061,0-0.132,0.019-0.207,0.053C158.459,201.717,158.055,202.122,158.03,202.281z"/>
			<path fill="#FFFFFF" d="M108.436,44.191c0.047,0.006,0.092,0.009,0.133,0.009c0.174,0,0.219-0.049,0.233-0.065
				c0.053-0.058,0.166-0.268,0.109-0.971l-0.037-0.082c-0.248,0.268-0.48,0.529-0.675,0.807
				C108.265,43.998,108.366,44.134,108.436,44.191z"/>
			<path fill="#FFFFFF" d="M78.595,110.605c0.001,0,0.017,0,0.03,0c-0.336-0.481-0.617-0.764-0.941-0.764
				c-0.051,0-0.105,0.006-0.163,0.019c-0.093,0.082-0.229,0.339-0.229,0.444c0.046,0.315,0.144,0.365,0.455,0.365
				c0.147,0,0.302-0.017,0.45-0.033c0.098-0.01,0.192-0.021,0.283-0.027C78.513,110.606,78.551,110.605,78.595,110.605z"/>
			<path fill="#FFFFFF" d="M70.128,161.38c-0.051-0.03-0.099-0.058-0.135-0.078c-0.036-0.021-0.07-0.041-0.102-0.059
				c-0.082-0.002-0.162-0.004-0.241-0.004c-0.512,0-0.681,0.069-0.732,0.127c-0.047,0.052-0.063,0.189-0.045,0.368
				c0.032,0.062,0.266,0.261,0.37,0.285C69.6,162.019,69.861,161.833,70.128,161.38z"/>
			<path fill="#FFFFFF" d="M184.752,61.218h-0.714c0.089,0.316,0.171,0.449,0.212,0.5C184.369,61.659,184.576,61.429,184.752,61.218
				z"/>
			<path fill="none" stroke="#FFFFFF" stroke-width="0" stroke-linecap="round" stroke-linejoin="round" d="M103.129,150.43
				c0.021,0.002,0.042,0.004,0.063,0.006"/>
			<path fill="none" stroke="#FFFFFF" stroke-width="0" stroke-linecap="round" stroke-linejoin="round" d="M103.379,150.451
				c-0.063-0.006-0.125-0.011-0.188-0.016"/>
			<path fill="#FFFFFF" d="M103.072,150.405c-0.034-0.016-0.069-0.029-0.102-0.051c-0.048-0.031-0.093-0.068-0.137-0.11
				c-0.034-0.033-0.067-0.067-0.1-0.106c-0.011-0.014-0.021-0.027-0.031-0.041c-0.237-0.305-0.428-0.728-0.662-1
				c-0.003-0.003-0.006-0.006-0.009-0.01c-0.063-0.071-0.13-0.131-0.201-0.175c-0.006-0.003-0.012-0.005-0.018-0.009
				c-0.072-0.039-0.149-0.064-0.234-0.065c-0.157-0.001-0.339,0.075-0.557,0.265c-0.31,0.268-0.454,0.726-0.675,1.098
				c0.928,0.076,1.854,0.154,2.782,0.23C103.109,150.424,103.091,150.412,103.072,150.405z"/>
			<path fill="#FFFFFF" d="M102.833,150.243c-0.034-0.033-0.067-0.067-0.1-0.106C102.766,150.176,102.799,150.21,102.833,150.243z"
				/>
			<path fill="#FFFFFF" d="M101.83,148.911c0.071,0.044,0.139,0.104,0.201,0.175C101.969,149.015,101.902,148.954,101.83,148.911z"
				/>
			<path fill="#FFFFFF" d="M102.04,149.096c0.234,0.272,0.425,0.695,0.662,1C102.465,149.792,102.276,149.367,102.04,149.096z"/>
			<path fill="#FFFFFF" d="M101.578,148.837c0.085,0.001,0.162,0.026,0.234,0.065C101.74,148.864,101.663,148.837,101.578,148.837z"
				/>
			<path fill="#FFFFFF" d="M102.97,150.354c0.032,0.021,0.067,0.035,0.102,0.051C103.037,150.389,103.002,150.375,102.97,150.354z"
				/>
			<path fill="none" stroke="#FB8C5A" stroke-width="0" stroke-linecap="round" stroke-linejoin="round" d="M102.97,150.354
				c-0.048-0.031-0.094-0.068-0.137-0.11"/>
			<path fill="none" stroke="#FB8C5A" stroke-width="0" stroke-linecap="round" stroke-linejoin="round" d="M103.192,150.436
				c-0.041-0.008-0.082-0.016-0.12-0.031"/>
			<path fill="none" stroke="#FB8C5A" stroke-width="0" stroke-linecap="round" stroke-linejoin="round" d="M102.734,150.137
				c-0.011-0.014-0.021-0.027-0.031-0.041"/>
			
				<line fill="none" stroke="#FB8C5A" stroke-width="0" stroke-linecap="round" stroke-linejoin="round" x1="101.576" y1="148.836" x2="101.578" y2="148.837"/>
			<path fill="none" stroke="#FB8C5A" stroke-width="0" stroke-linecap="round" stroke-linejoin="round" d="M103.192,150.436
				c0.031,0.005,0.058,0.023,0.091,0.023"/>
			<path fill="none" stroke="#FB8C5A" stroke-width="0" stroke-linecap="round" stroke-linejoin="round" d="M102.97,150.354
				c0.032,0.021,0.067,0.035,0.102,0.051"/>
			<path fill="none" stroke="#FB8C5A" stroke-width="0" stroke-linecap="round" stroke-linejoin="round" d="M102.04,149.096
				c0.234,0.272,0.425,0.695,0.662,1"/>
			<path fill="none" stroke="#FB8C5A" stroke-width="0" stroke-linecap="round" stroke-linejoin="round" d="M101.83,148.911
				c0.071,0.044,0.139,0.104,0.201,0.175"/>
			<path fill="none" stroke="#FB8C5A" stroke-width="0" stroke-linecap="round" stroke-linejoin="round" d="M101.578,148.837
				c0.085,0.001,0.162,0.026,0.234,0.065"/>
			<path fill="none" stroke="#FB8C5A" stroke-width="0" stroke-linecap="round" stroke-linejoin="round" d="M102.734,150.137
				c0.032,0.039,0.065,0.073,0.1,0.106"/>
			<path fill="none" stroke="#FB8C5A" stroke-width="0" stroke-linecap="round" stroke-linejoin="round" d="M101.83,148.911
				c-0.006-0.003-0.012-0.005-0.018-0.009"/>
			
				<line fill="none" stroke="#FB8C5A" stroke-width="0" stroke-linecap="round" stroke-linejoin="round" x1="102.031" y1="149.086" x2="102.04" y2="149.096"/>
			<path fill="#FFFFFF" d="M171.448,202.299c0.015,0,0.03,0,0.046,0c0.169-0.077,0.337-0.077,0.405-0.077
				c0.063,0,0.131,0.004,0.198,0.01c-0.132-0.277-0.565-0.623-0.929-0.732c-0.053-0.016-0.104-0.023-0.15-0.023
				c-0.107,0-0.147,0.046-0.16,0.061c-0.066,0.075-0.094,0.226-0.072,0.402C170.813,202.164,170.828,202.299,171.448,202.299z"/>
			<path fill="#FFFFFF" d="M80.507,181.88c-0.002,0-0.005,0.001-0.007,0.001c0.335,0.284,0.558,0.284,0.651,0.284
				c0.31,0,0.642-0.186,0.992-0.383c0.002-0.002,0.004-0.003,0.007-0.004c-0.131-0.021-0.269-0.03-0.417-0.03
				C81.359,181.748,80.945,181.812,80.507,181.88z"/>
			
				<line fill="none" stroke="#FB8C5A" stroke-width="0" stroke-linecap="round" stroke-linejoin="round" x1="49.914" y1="55.654" x2="49.914" y2="55.655"/>
			<path fill="#FFFFFF" d="M79.031,117.293c-0.104-0.014-0.205-0.022-0.302-0.022c-0.224,0-0.391,0.044-0.458,0.123
				c-0.064,0.075-0.082,0.234-0.051,0.448c0.024,0.024,0.201,0.149,0.286,0.21c0.012,0.008,0.023,0.017,0.035,0.025
				c0.467-0.081,0.716-0.314,0.941-0.641C79.323,117.367,79.171,117.312,79.031,117.293z"/>
			<path fill="#FFFFFF" d="M55.439,193.064c-0.058-0.011-0.112-0.016-0.166-0.016c-0.378,0-0.765,0.29-1.179,0.887
				c0.085,0.143,0.234,0.331,0.318,0.376c0.058,0.014,0.13,0.025,0.189,0.025c0.172,0,0.258-0.107,0.481-0.609
				C55.176,193.519,55.283,193.279,55.439,193.064z"/>
			<path fill="#FFFFFF" d="M75.84,159.423c-0.028-0.003-0.084-0.01-0.135-0.01c-0.302,0-0.537,0.251-0.862,0.706
				c0.073,0.038,0.141,0.065,0.188,0.068c0.081,0.004,0.163,0.01,0.247,0.017c0.13,0.01,0.264,0.021,0.393,0.021
				c0.384,0,0.448-0.058,0.463-0.41C76.118,159.723,75.938,159.472,75.84,159.423z"/>
			<path fill="#FFFFFF" d="M52.766,97.197c0.016-0.178-0.006-0.325-0.063-0.387c-0.062-0.068-0.229-0.106-0.458-0.106
				c-0.127,0-0.259,0.011-0.389,0.025c-0.096,0.01-0.221,0.073-0.35,0.147c0.233,0.328,0.503,0.554,0.965,0.643
				c0.008-0.008,0.017-0.016,0.025-0.023C52.582,97.414,52.742,97.265,52.766,97.197z"/>
			<path fill="#FFFFFF" d="M74.11,94.356c-0.082,0.036-0.164,0.069-0.244,0.102c-0.47,0.191-0.843,0.343-1.102,0.791
				c0.097-0.044,0.191-0.086,0.283-0.126C73.483,94.933,73.846,94.776,74.11,94.356z"/>
			<path fill="#FFFFFF" d="M94.519,219.342c-0.485,0.042-0.913,0.344-1.364,0.662c-0.044,0.031-0.088,0.063-0.132,0.093
				c0.05,0.005,0.099,0.008,0.146,0.008C93.641,220.105,94.065,219.87,94.519,219.342z"/>
			<path fill="#FFFFFF" d="M163.98,219.994c-0.218-0.242-0.433-0.42-0.638-0.42c-0.098,0-0.213,0.037-0.34,0.11
				c-0.046,0.026-0.102,0.112-0.155,0.214C163.225,219.93,163.602,219.962,163.98,219.994z"/>
			<path fill="#FFFFFF" d="M64.984,136.916c-0.137-0.013-0.274-0.026-0.405-0.026c-0.286,0-0.335,0.061-0.368,0.171
				c-0.011,0.154-0.005,0.271,0.006,0.355c0.014-0.015,0.029-0.033,0.045-0.052c0.253-0.308,0.53-0.372,0.72-0.372
				c0.366,0,0.648,0.237,0.854,0.411c0.005,0.004,0.011,0.008,0.017,0.013c0.05-0.157,0.052-0.287,0.006-0.352
				c-0.052-0.073-0.2-0.118-0.388-0.118C65.315,136.946,65.15,136.931,64.984,136.916z"/>
		</g>
	</g>
</g>
<g>
	<path fill="#FFFFFF" d="M249.117,57.34V15.5c-4.271,0-8.119-1.779-10.852-4.64c-2.857-2.729-4.648-6.592-4.648-10.86h-31.4
		c0,8.29-6.709,15-15,15h-0.939c-8.277,0-15-6.71-15-15h-31.398c0,8.29-6.719,15-14.999,15h-0.95c-8.28,0-15-6.71-15-15H77.531
		c0,8.29-6.711,15-15,15h-0.938c-8.29,0-15-6.71-15-15h-31.4c0,4.271-1.79,8.131-4.647,10.86c-2.73,2.858-6.58,4.64-10.853,4.64
		v41.841c8.28,0,15,6.72,15,15v1.109c0,8.279-6.72,15-15,15v41.83c8.28,0,15,6.72,15,15v1.108c0,8.279-6.72,15-15,15v41.83
		c8.28,0,15,6.722,15,15v1.109c0,8.28-6.72,15-15,15v41.84c4.271,0,8.12,1.78,10.853,4.641c2.857,2.729,4.647,6.592,4.647,10.859
		h31.4c0-8.289,6.71-15,15-15h0.938c8.289,0,15,6.711,15,15h31.399c0-8.289,6.72-15,15-15h0.95c8.28,0,14.999,6.711,14.999,15
		h31.398c0-8.289,6.711-15,15-15h0.939c8.291,0,15,6.711,15,15h31.4c0-4.27,1.791-8.13,4.648-10.859
		c2.73-2.858,6.58-4.641,10.852-4.641v-41.84c-8.279,0-15-6.72-15-15v-1.109c0-8.278,6.721-15,15-15v-41.83c-8.279,0-15-6.721-15-15
		v-1.108c0-8.28,6.721-15,15-15V88.45c-8.279,0-15-6.72-15-15v-1.109C234.117,64.059,240.836,57.34,249.117,57.34z M214.287,256.99
		H34.517V34.68h179.771V256.99z"/>
</g>
<rect x="34.549" y="68.335" fill="none" width="179.711" height="155.198"/>
<text transform="matrix(1 0 0 1 96.7209 223.2747)" fill="#FFFFFF" font-family="'Oswald-Regular'" font-size="177.1729">1</text>
</svg>
